<?xml version="1.0" encoding="utf-8"?>
<!-- Generator: Adobe Illustrator 27.0.0, SVG Export Plug-In . SVG Version: 6.00 Build 0)  -->
<svg version="1.1" id="Layer_1" xmlns="http://www.w3.org/2000/svg" xmlns:xlink="http://www.w3.org/1999/xlink" x="0px" y="0px"
	 viewBox="0 0 537.6 401.9" style="enable-background:new 0 0 537.6 401.9;" xml:space="preserve">
<style type="text/css">
	.st0{fill:#00549A;}
	.st1{fill:#FFFFFF;}
	.st2{fill:#FFF200;}
</style>
<rect class="st0" width="537.6" height="106.7"/>
<rect y="117" class="st0" width="537.6" height="167.8"/>
<rect y="295.2" class="st0" width="537.6" height="106.7"/>
<g>
	<rect x="452.3" y="81.1" class="st1" width="15.8" height="9.8"/>
	<rect x="432.1" y="81.1" class="st1" width="15.8" height="9.8"/>
	<polygon class="st1" points="210.6,62.7 200.9,62.7 200.9,48.8 181.4,48.8 181.4,62.7 40.5,62.7 38.8,59 52.1,41.6 52.1,29.2 
		32.9,29.2 11.8,56.7 23.8,82.5 230.1,82.5 230.1,48.8 210.6,48.8 	"/>
	<rect x="212.9" y="30.7" class="st1" width="15.8" height="9.8"/>
	<rect x="64.5" y="33.7" class="st1" width="15.8" height="9.8"/>
	<rect x="85" y="33.7" class="st1" width="15.8" height="9.8"/>
	<polygon class="st1" points="513.6,44.8 456,44.8 447.2,37.5 508.4,37.5 502.1,26.3 425.2,26.3 423.9,30.3 450.3,52.3 495.8,52.3 
		495.8,58.1 446.7,58.1 430,44.2 396.7,44.2 396.7,73.7 341.9,73.7 341.9,61.6 388.1,61.6 388.1,44.2 313.4,44.2 313.4,87.9 
		416.5,87.9 416.5,64.7 428.1,74.4 514.4,74.4 526.5,62 526.5,58 	"/>
	<rect x="249.4" y="54.2" class="st1" width="36.5" height="15.9"/>
</g>
<polygon class="st2" points="466.5,268.3 367.8,194 464.7,134.7 291.1,134.7 206.1,186.7 206.1,134.7 85,134.7 85,268.3 
	206.1,268.3 206.1,198.7 283.9,268.3 "/>
<g>
	<path class="st1" d="M60.9,387.5v-66.2h17.4v7.9c2.5-3.2,5.4-5.6,8.8-7.2c3.4-1.6,7.1-2.4,11.3-2.4c7.3,0,12.8,1.9,16.4,5.7
		c3.6,3.8,5.5,9.5,5.5,17.1v45.1h-17.7v-40c0-4.8-0.8-8.1-2.4-10.2c-1.6-2-4.2-3-7.8-3c-4.2,0-7.5,1.2-9.9,3.7
		c-2.4,2.5-3.7,5.9-3.7,10.2v39.3H60.9z"/>
	<path class="st1" d="M280,366.6h17.7c-1.8,7-5.4,12.5-10.8,16.4c-5.4,4-12,5.9-19.8,5.9c-9.6,0-17.2-3.2-22.8-9.7
		c-5.6-6.4-8.4-15.2-8.4-26.2c0-10.8,2.8-19.4,8.3-25.6c5.5-6.3,13.1-9.4,22.7-9.4c10.1,0,18,3.1,23.5,9.2
		c5.5,6.2,8.3,14.9,8.3,26.3c0,1.3,0,2.2,0,2.8c0,0.6-0.1,1.2-0.2,1.8h-44.2c0.2,5.2,1.5,9.1,3.8,11.8c2.3,2.6,5.6,4,9.9,4
		c3,0,5.5-0.6,7.5-1.8C277.3,371,278.9,369.1,280,366.6z M254.2,346.6h26.1c-0.2-4.5-1.4-7.9-3.6-10.2c-2.2-2.3-5.4-3.5-9.5-3.5
		c-3.9,0-6.9,1.2-9.1,3.5C255.8,338.8,254.5,342.2,254.2,346.6z"/>
	<path class="st1" d="M474.5,395.8c-1.6,0-3.6,0.1-5.8,0.2c-2.3,0.1-3.7,0.2-4.3,0.2c-6.8,0-11.4-1.3-13.9-3.8
		c-2.5-2.5-3.7-7.5-3.7-15v-35.8H438v-12.4h8.8V311h17.5v18.1h10.2v12.4h-10.2v36.7c0,1.7,0.4,2.9,1.2,3.4c0.8,0.5,2.4,0.8,4.8,0.8
		h4.3V395.8z"/>
</g>
</svg>
