<?xml version="1.0" encoding="UTF-8"?>
<svg id="Layer_1" data-name="Layer 1" xmlns="http://www.w3.org/2000/svg" viewBox="0 0 252.54 66.53">
  <path d="m56.57,18.94c-6.53,0-13.25,4.46-13.25,12.96s6.72,12.96,13.25,12.96,13.25-4.46,13.25-12.96-6.72-12.96-13.25-12.96Zm0,19.2c-3.21,0-5.9-2.4-5.9-6.24s2.69-6.24,5.9-6.24,5.91,2.4,5.91,6.24-2.69,6.24-5.91,6.24Z" style="fill: #ed1d61;"/>
  <path d="m25.18,31.85c0,3.89,2.74,6.29,5.95,6.29,2.4,0,4.18-1.29,5.38-2.93l5.38,3.51c-2.45,4.03-6.34,6.14-10.76,6.14-6.67,0-13.29-4.46-13.29-13.01s6.62-12.91,13.29-12.91c4.42,0,8.31,2.02,10.76,6.14l-5.38,3.51c-1.2-1.63-2.98-2.93-5.38-2.93-3.21,0-5.95,2.4-5.95,6.19Z" style="fill: #ed1d61;"/>
  <path d="m97.28,44.38h-7.44v-3.17c-1.39,2.11-3.84,3.65-7.39,3.65-5.04,0-9.31-3.12-9.31-10.75v-14.69h7.44v13.39c0,3.12,1.58,5.42,4.66,5.42s4.61-2.3,4.61-5.42v-13.39h7.44v24.96Z" style="fill: #ed1d61;"/>
  <path d="m101.79,19.42h7.44v2.83h.14c.38-.91,2.98-3.31,7.39-3.31,5.67,0,11.91,4.27,11.91,12.96s-6.24,12.96-11.91,12.96c-4.42,0-7.01-2.4-7.39-3.31h-.14v11.95h-7.44V19.42Zm13.44,18.82c3.17,0,6.1-2.3,6.1-6.34s-2.93-6.34-6.1-6.34-6.19,2.26-6.19,6.34,2.93,6.34,6.19,6.34Z" style="fill: #ed1d61;"/>
  <path d="m207.49,19.42v2.83h-.15c-.38-.91-2.97-3.31-7.39-3.31-5.67,0-11.91,4.27-11.91,12.96s6.24,12.96,11.91,12.96c4.42,0,7.01-2.4,7.39-3.31h.15v2.83h7.44v-24.96h-7.44Zm-6,18.82c-3.17,0-6.1-2.31-6.1-6.34s2.93-6.34,6.1-6.34,6.19,2.26,6.19,6.34-2.93,6.34-6.19,6.34Z" style="fill: #ed1d61;"/>
  <path d="m144.03,18.94c-6.53,0-13.25,4.46-13.25,12.96s6.72,12.96,13.25,12.96,13.25-4.46,13.25-12.96-6.72-12.96-13.25-12.96Zm0,19.2c-3.22,0-5.91-2.4-5.91-6.24s2.69-6.24,5.91-6.24,5.9,2.4,5.9,6.24-2.68,6.24-5.9,6.24Z" style="fill: #ed1d61;"/>
  <path d="m184.73,29.69v14.69h-7.44v-13.39c0-3.12-1.58-5.43-4.65-5.43s-4.61,2.31-4.61,5.43v13.39h-7.44v-24.96h7.44v3.17c1.39-2.11,3.84-3.65,7.39-3.65,5.04,0,9.31,3.12,9.31,10.75Z" style="fill: #ed1d61;"/>
  <path d="m221.93,36.7v-11.38h-3.7v-5.9h3.7v-6.38h7.44v6.38h5.23v5.9h-5.23v10.18c0,1.25.72,2.59,2.98,2.59.58,0,1.44-.1,2.35-.38v5.66c-.96.96-3.07,1.3-4.8,1.3-4.61,0-7.97-2.26-7.97-7.97Z" style="fill: #ed1d61;"/>
</svg>