<?xml version="1.0" encoding="utf-8"?>
<!-- Generator: Adobe Illustrator 27.0.0, SVG Export Plug-In . SVG Version: 6.00 Build 0)  -->
<svg version="1.1" id="Layer_1" xmlns="http://www.w3.org/2000/svg" xmlns:xlink="http://www.w3.org/1999/xlink" x="0px" y="0px"
	 viewBox="0 0 128 27" style="enable-background:new 0 0 128 27;" xml:space="preserve">
<style type="text/css">
	.st0{fill:#A4083E;}
	.st1{fill:#F80F5F;}
	.st2{fill:url(#SVGID_1_);}
	.st3{fill:url(#SVGID_00000150086126407065016500000007250380024892389250_);}
	.st4{fill:url(#SVGID_00000081627078292888455800000017363490900208093085_);}
	.st5{fill:url(#SVGID_00000001633660513969552870000018175729849556294833_);}
	.st6{fill:url(#SVGID_00000129901594368466689520000009263387233134607271_);}
	.st7{fill:url(#SVGID_00000125578769055882444560000012163235865507870336_);}
	.st8{fill:url(#SVGID_00000014627581801632620750000002624045677352980895_);}
	.st9{fill:url(#SVGID_00000144329182849366323440000010272276190355860877_);}
	.st10{fill:url(#SVGID_00000139978690916735926620000017481617738928715661_);}
	.st11{fill:url(#SVGID_00000098926143003768239460000016371613821356348344_);}
	.st12{fill:url(#SVGID_00000052784985322848989330000016881887250841837755_);}
	.st13{fill:url(#SVGID_00000101072826374501230590000016580623877075947158_);}
	.st14{fill:url(#SVGID_00000182527004981123528860000006377615762637179839_);}
	.st15{fill:url(#SVGID_00000168101515923103076010000011504176503760825781_);}
	.st16{fill:url(#SVGID_00000168837210529577937660000011585172462758563735_);}
	.st17{fill:url(#SVGID_00000066476060507532055710000003908254532215914141_);}
	.st18{fill:url(#SVGID_00000030445853679747527590000017329698626820776380_);}
	.st19{fill:url(#SVGID_00000154408661604601350880000005726244665947653309_);}
	.st20{fill:url(#SVGID_00000065068718716865240710000011995189690524837527_);}
	.st21{fill:url(#SVGID_00000075848583932458904180000010502541443162402973_);}
	.st22{fill:url(#SVGID_00000103266478566851084270000017050797930094371747_);}
	.st23{fill:url(#SVGID_00000041280954584411013350000001272643660101076097_);}
	.st24{fill:url(#SVGID_00000026122919706115564710000003972903878503132585_);}
	.st25{fill:url(#SVGID_00000085941798455255083330000015749439154224719530_);}
</style>
<g id="WOAXFL_00000087401563537633825090000005261577447924908710_">
	
		<image style="overflow:visible;" width="128" height="27" id="WOAXFL_00000155845509846356212310000016305973110206606477_" xlink:href="EF80EDF61F67A478.png"  transform="matrix(1 0 0 1 -772.9708 99.1613)">
	</image>
</g>
<rect x="-772.4" y="62.1" class="st0" width="27.5" height="27.5"/>
<rect x="-729" y="62.1" class="st1" width="27.5" height="27.5"/>
<g>
	<linearGradient id="SVGID_1_" gradientUnits="userSpaceOnUse" x1="-989.1977" y1="-32.5589" x2="-627.524" y2="-80.2797">
		<stop  offset="0" style="stop-color:#A4083E"/>
		<stop  offset="1" style="stop-color:#F80F5F"/>
	</linearGradient>
	<path class="st2" d="M-995.4-62.6c13.7,0,23.6,7.3,25.6,20H-984c-1.9-5.7-6.7-8.6-13.4-8.6c-10.9,0-19.9,7.9-22,20.2
		c-2.2,12.2,4.1,20.2,14.9,20.2c6.6,0,12.6-2.9,16.5-8.7h14.3c-6.5,12.7-18.9,20-32.6,20c-17.9,0-29-13-25.8-31.5
		C-1028.9-49.5-1013.2-62.6-995.4-62.6z"/>
	
		<linearGradient id="SVGID_00000102516293988320185120000013096358060339959993_" gradientUnits="userSpaceOnUse" x1="-987.3205" y1="-18.3318" x2="-625.6468" y2="-66.0526">
		<stop  offset="0" style="stop-color:#A4083E"/>
		<stop  offset="1" style="stop-color:#F80F5F"/>
	</linearGradient>
	<path style="fill:url(#SVGID_00000102516293988320185120000013096358060339959993_);" d="M-944.8,0.8c-12.7,0-21.2-8.3-21.2-20.6
		c0-16.8,12.8-30,30-30c12.7,0,21.5,8.3,21.5,20.7C-914.6-12.1-927.7,0.8-944.8,0.8z M-943.1-9.8c9.2,0,15.8-8.9,15.8-18.3
		c0-7.4-4.8-11.1-10.4-11.1c-9.3,0-15.4,8.9-15.4,18.5C-953.2-13.5-948.9-9.8-943.1-9.8z"/>
	
		<linearGradient id="SVGID_00000177455813439708694650000008182033741192760246_" gradientUnits="userSpaceOnUse" x1="-986.3386" y1="-10.8898" x2="-624.6649" y2="-58.6106">
		<stop  offset="0" style="stop-color:#A4083E"/>
		<stop  offset="1" style="stop-color:#F80F5F"/>
	</linearGradient>
	<path style="fill:url(#SVGID_00000177455813439708694650000008182033741192760246_);" d="M-864,0h-12.4l1.1-6.2
		c-3.7,4.2-9.6,6.8-15.8,6.8c-11.5,0-18.4-7.4-16-20.9l5-28.8h12.4l-4.8,27c-1.3,7.9,2.2,12.1,8.9,12.1s11.8-4.2,13.1-12.1l4.8-27
		h12.4L-864,0z"/>
	
		<linearGradient id="SVGID_00000068639228379268710170000008533096756445548734_" gradientUnits="userSpaceOnUse" x1="-984.1425" y1="5.754" x2="-622.4688" y2="-41.9668">
		<stop  offset="0" style="stop-color:#A4083E"/>
		<stop  offset="1" style="stop-color:#F80F5F"/>
	</linearGradient>
	<path style="fill:url(#SVGID_00000068639228379268710170000008533096756445548734_);" d="M-814.4-49.8c12.6,0,20.6,9.8,18,25.1
		c-2.7,15.3-14.3,25.5-26.8,25.5c-7.7,0-12.6-3.8-14.9-7.8l-5.3,30.4h-12.5l12.7-72.4h12.5l-1.2,7.1
		C-828.3-46.1-822-49.8-814.4-49.8z M-819.5-38.9c-6.6,0-13.9,5.1-15.5,14.4c-1.7,9.3,3.6,14.4,10.4,14.4s13.9-5.3,15.6-14.6
		C-807.5-34-812.8-38.9-819.5-38.9z"/>
	
		<linearGradient id="SVGID_00000081644071183050450430000009899209472667577991_" gradientUnits="userSpaceOnUse" x1="-984.3262" y1="4.3618" x2="-622.6525" y2="-43.359">
		<stop  offset="0" style="stop-color:#A4083E"/>
		<stop  offset="1" style="stop-color:#F80F5F"/>
	</linearGradient>
	<path style="fill:url(#SVGID_00000081644071183050450430000009899209472667577991_);" d="M-769.8,0.8c-12.7,0-21.2-8.3-21.2-20.6
		c0-16.8,12.8-30,30-30c12.7,0,21.5,8.3,21.5,20.7C-739.6-12.1-752.8,0.8-769.8,0.8z M-768.2-9.8c9.2,0,15.8-8.9,15.8-18.3
		c0-7.4-4.8-11.1-10.4-11.1c-9.3,0-15.4,8.9-15.4,18.5C-778.2-13.5-773.9-9.8-768.2-9.8z"/>
	
		<linearGradient id="SVGID_00000153673579485024267500000013951771990016320188_" gradientUnits="userSpaceOnUse" x1="-983.3367" y1="11.8612" x2="-621.663" y2="-35.8596">
		<stop  offset="0" style="stop-color:#A4083E"/>
		<stop  offset="1" style="stop-color:#F80F5F"/>
	</linearGradient>
	<path style="fill:url(#SVGID_00000153673579485024267500000013951771990016320188_);" d="M-696.1-27.1c1.3-7.9-2.2-12.1-8.8-12.1
		c-6.6,0-11.5,4-13.1,11.5L-722.8,0h-12.5l8.7-49h12.5l-1.1,6c3.9-4.1,9.6-6.7,15.8-6.7c11.5,0,18.3,7.4,15.9,21L-688.6,0h-12.3
		L-696.1-27.1z"/>
	
		<linearGradient id="SVGID_00000179625163908396623040000002592015795696195716_" gradientUnits="userSpaceOnUse" x1="-982.2249" y1="20.2874" x2="-620.5512" y2="-27.4335">
		<stop  offset="0" style="stop-color:#A4083E"/>
		<stop  offset="1" style="stop-color:#F80F5F"/>
	</linearGradient>
	<path style="fill:url(#SVGID_00000179625163908396623040000002592015795696195716_);" d="M-648.8-49.8c7.9,0,12.7,3.7,14.8,7.8
		l1.2-7h12.5l-8.7,49h-12.5l1.3-7.2c-3.6,4.2-9.9,8-17.7,8c-12.4,0-20.5-10.2-17.8-25.5C-672.9-40-661.2-49.8-648.8-49.8z
		 M-647.4-38.9c-6.6,0-13.8,5-15.5,14.3c-1.6,9.3,3.7,14.6,10.4,14.6c6.7,0,13.9-5.1,15.5-14.4C-635.4-33.8-640.7-38.9-647.4-38.9z"
		/>
	
		<linearGradient id="SVGID_00000028310891243973680370000010787445500325628347_" gradientUnits="userSpaceOnUse" x1="-982.2411" y1="20.1642" x2="-620.5674" y2="-27.5567">
		<stop  offset="0" style="stop-color:#A4083E"/>
		<stop  offset="1" style="stop-color:#F80F5F"/>
	</linearGradient>
	<path style="fill:url(#SVGID_00000028310891243973680370000010787445500325628347_);" d="M-607.9-38.9h-5.8L-612-49h5.9l2.1-12.1
		h12.5l-2.1,12.1h10.9l-1.8,10.2h-11l-4.2,23.7c-0.5,3.3,0.5,4.7,4.3,4.7h5.8L-591.3,0h-7.9c-9.4,0-14.9-4-12.9-15.2L-607.9-38.9z"
		/>
</g>
<g>
	
		<linearGradient id="SVGID_00000175312616519325528460000017747591159080652198_" gradientUnits="userSpaceOnUse" x1="21.9755" y1="-3.005" x2="42.4239" y2="-23.4534">
		<stop  offset="0" style="stop-color:#F80F5F"/>
		<stop  offset="1" style="stop-color:#A4083E"/>
	</linearGradient>
	<path style="fill:url(#SVGID_00000175312616519325528460000017747591159080652198_);" d="M8,7c1.5,0,2.3,0.8,2.5,2.2h3.9
		c-0.2-3.5-2.3-5.5-5.9-5.5c-4.2,0-7.6,3.2-8.4,8.1c-0.8,4.9,1.6,8.1,5.8,8.1c3.6,0,6.3-2.2,7.7-5.5H9.7C9,15.7,8,16.4,6.5,16.4
		c-2,0-3.1-1.6-2.6-4.7S6,7,8,7z"/>
	
		<linearGradient id="SVGID_00000132062377140485706530000017852096941859939477_" gradientUnits="userSpaceOnUse" x1="29.5533" y1="5.3171" x2="49.9793" y2="-15.1089">
		<stop  offset="0" style="stop-color:#F80F5F"/>
		<stop  offset="1" style="stop-color:#A4083E"/>
	</linearGradient>
	<path style="fill:url(#SVGID_00000132062377140485706530000017852096941859939477_);" d="M24.4,3.6c-5,0-8.8,4.2-8.8,9.6
		c0,3.9,2.5,6.6,6.2,6.6c5,0,8.9-4.1,8.9-9.6C30.7,6.3,28.2,3.6,24.4,3.6z M22.3,16.4c-1.7,0-3-1.2-3-3.5c0-3.1,1.8-5.9,4.5-5.9
		c1.7,0,3.1,1.2,3.1,3.5C27,13.5,25,16.4,22.3,16.4z"/>
	
		<linearGradient id="SVGID_00000039126516005615884720000007899535609441759904_" gradientUnits="userSpaceOnUse" x1="37.5677" y1="14.0998" x2="57.9738" y2="-6.3064">
		<stop  offset="0" style="stop-color:#F80F5F"/>
		<stop  offset="1" style="stop-color:#A4083E"/>
	</linearGradient>
	<path style="fill:url(#SVGID_00000039126516005615884720000007899535609441759904_);" d="M44.5,3.9l-1.4,8.6
		c-0.4,2.5-1.9,3.9-3.8,3.9c-1.9,0-3-1.4-2.6-3.9L38,3.9h-3.6l-1.5,9.2c-0.7,4.3,1.3,6.7,4.7,6.7c1.8,0,3.5-0.8,4.6-2.2l-0.3,2h3.6
		l2.5-15.7H44.5z"/>
	
		<linearGradient id="SVGID_00000040572919450417359020000005475878822204639672_" gradientUnits="userSpaceOnUse" x1="45.1533" y1="22.6445" x2="65.6821" y2="2.1157">
		<stop  offset="0" style="stop-color:#F80F5F"/>
		<stop  offset="1" style="stop-color:#A4083E"/>
	</linearGradient>
	<path style="fill:url(#SVGID_00000040572919450417359020000005475878822204639672_);" d="M60.1,3.6c-2.2,0-4.1,1.2-5.1,2.5l0.4-2.3
		h-3.7L47.9,27h3.7l1.6-9.7c0.7,1.3,2.1,2.5,4.4,2.5c3.7,0,7.1-3.3,7.9-8.1C66.1,6.8,63.8,3.6,60.1,3.6z M61.7,11.6
		c-0.5,3-2.6,4.7-4.6,4.7s-3.5-1.6-3-4.6c0.5-3,2.6-4.6,4.5-4.6C60.6,7.1,62.1,8.7,61.7,11.6z"/>
	
		<linearGradient id="SVGID_00000004504415386388935710000001457033040376429743_" gradientUnits="userSpaceOnUse" x1="54.0567" y1="32.1104" x2="74.4827" y2="11.6844">
		<stop  offset="0" style="stop-color:#F80F5F"/>
		<stop  offset="1" style="stop-color:#A4083E"/>
	</linearGradient>
	<path style="fill:url(#SVGID_00000004504415386388935710000001457033040376429743_);" d="M75.7,3.6c-5,0-8.8,4.2-8.8,9.6
		c0,3.9,2.5,6.6,6.2,6.6c5,0,8.9-4.1,8.9-9.6C82,6.3,79.5,3.6,75.7,3.6z M73.6,16.4c-1.7,0-3-1.2-3-3.5c0-3.1,1.8-5.9,4.5-5.9
		c1.7,0,3.1,1.2,3.1,3.5C78.3,13.5,76.3,16.4,73.6,16.4z"/>
	
		<linearGradient id="SVGID_00000064325387848693610990000009470687380704917647_" gradientUnits="userSpaceOnUse" x1="62.1828" y1="40.9111" x2="82.5893" y2="20.5046">
		<stop  offset="0" style="stop-color:#F80F5F"/>
		<stop  offset="1" style="stop-color:#A4083E"/>
	</linearGradient>
	<path style="fill:url(#SVGID_00000064325387848693610990000009470687380704917647_);" d="M93.8,3.6c-1.8,0-3.5,0.8-4.6,2.1l0.3-1.9
		h-3.7l-2.5,15.7h3.7l1.4-8.8C88.8,8.3,90.3,7,92.2,7c1.9,0,3,1.4,2.6,3.9l-1.4,8.7H97l1.5-9.2C99.2,6,97.2,3.6,93.8,3.6z"/>
	
		<linearGradient id="SVGID_00000171695711061166670000000018111584836693181598_" gradientUnits="userSpaceOnUse" x1="71.1409" y1="50.571" x2="91.5231" y2="30.1887">
		<stop  offset="0" style="stop-color:#F80F5F"/>
		<stop  offset="1" style="stop-color:#A4083E"/>
	</linearGradient>
	<path style="fill:url(#SVGID_00000171695711061166670000000018111584836693181598_);" d="M113,6.1c-0.6-1.3-2-2.5-4.3-2.5
		c-3.7,0-7.1,3.1-7.9,8c-0.8,4.9,1.6,8.1,5.2,8.1c2.3,0,4.1-1.2,5.2-2.5l-0.4,2.3h3.7L117,3.9h-3.7L113,6.1z M112.1,11.7
		c-0.5,3-2.6,4.6-4.5,4.6c-1.9,0-3.5-1.7-3-4.7c0.5-3,2.6-4.6,4.5-4.6C111,7.1,112.6,8.7,112.1,11.7z"/>
	
		<linearGradient id="SVGID_00000013170407109606567730000015172407058759590020_" gradientUnits="userSpaceOnUse" x1="75.5868" y1="57.8089" x2="96.4739" y2="36.9218">
		<stop  offset="0" style="stop-color:#F80F5F"/>
		<stop  offset="1" style="stop-color:#A4083E"/>
	</linearGradient>
	<path style="fill:url(#SVGID_00000013170407109606567730000015172407058759590020_);" d="M124.3,7.1h3.2l0.5-3.3h-3.2l0.6-3.9h-3.7
		l-0.6,3.9h-1.7l-0.5,3.3h1.7l-1.2,7.5c-0.6,3.6,1,4.9,3.8,4.9h2.3l0.5-3.3h-1.7c-1.1,0-1.4-0.5-1.3-1.5L124.3,7.1z"/>
</g>
<g>
	<g>
		<path d="M-990.1-573.9c12.2,0,19.3,6.4,20.1,17.3h-13.4c-0.7-4.2-3.5-6.8-8.7-6.8c-6.9,0-12.4,5.2-14.1,14.8s2,14.7,8.9,14.7
			c5.1,0,8.7-2.3,11-6.7h13.4c-4.5,10.4-14,17.3-26.1,17.3c-14.3,0-22.7-9.9-19.8-25.3C-1016.2-564-1004.3-573.9-990.1-573.9z"/>
		<path d="M-944.8-523.3c-12.7,0-21.2-8.3-21.2-20.6c0-16.8,12.8-30,30-30c12.7,0,21.5,8.3,21.5,20.7
			C-914.6-536.2-927.7-523.3-944.8-523.3z M-943.1-533.9c9.2,0,15.8-8.9,15.8-18.3c0-7.4-4.8-11.1-10.4-11.1
			c-9.3,0-15.4,8.9-15.4,18.5C-953.2-537.5-948.9-533.9-943.1-533.9z"/>
		<path d="M-864-524.1h-12.4l1.1-6.2c-3.7,4.2-9.6,6.8-15.8,6.8c-11.5,0-18.4-7.4-16-20.9l5-28.8h12.4l-4.8,27
			c-1.3,7.9,2.2,12.1,8.9,12.1s11.8-4.2,13.1-12.1l4.8-27h12.4L-864-524.1z"/>
		<path d="M-814.4-573.9c12.6,0,20.6,9.8,18,25.1c-2.7,15.3-14.3,25.5-26.8,25.5c-7.7,0-12.6-3.8-14.9-7.8l-5.3,30.4h-12.5
			l12.7-72.4h12.5l-1.2,7.1C-828.3-570.2-822-573.9-814.4-573.9z M-819.5-563c-6.6,0-13.9,5.1-15.5,14.4
			c-1.7,9.3,3.6,14.4,10.4,14.4s13.9-5.3,15.6-14.6C-807.5-558.1-812.8-563-819.5-563z"/>
		<path d="M-769.8-523.3c-12.7,0-21.2-8.3-21.2-20.6c0-16.8,12.8-30,30-30c12.7,0,21.5,8.3,21.5,20.7
			C-739.6-536.2-752.8-523.3-769.8-523.3z M-768.2-533.9c9.2,0,15.8-8.9,15.8-18.3c0-7.4-4.8-11.1-10.4-11.1
			c-9.3,0-15.4,8.9-15.4,18.5C-778.2-537.5-773.9-533.9-768.2-533.9z"/>
		<path d="M-696.1-551.2c1.3-7.9-2.2-12.1-8.8-12.1c-6.6,0-11.5,4-13.1,11.5l-4.9,27.7h-12.5l8.7-49h12.5l-1.1,6
			c3.9-4.1,9.6-6.7,15.8-6.7c11.5,0,18.3,7.4,15.9,21l-5.1,28.8h-12.3L-696.1-551.2z"/>
		<path d="M-648.8-573.9c7.9,0,12.7,3.7,14.8,7.8l1.2-7h12.5l-8.7,49h-12.5l1.3-7.2c-3.6,4.2-9.9,8-17.7,8
			c-12.4,0-20.5-10.2-17.8-25.5C-672.9-564.1-661.2-573.9-648.8-573.9z M-647.4-563c-6.6,0-13.8,5-15.5,14.3
			c-1.6,9.3,3.7,14.6,10.4,14.6c6.7,0,13.9-5.1,15.5-14.4C-635.4-557.9-640.7-563-647.4-563z"/>
		<path d="M-607.9-563h-5.8l1.8-10.2h5.9l2.1-12.1h12.5l-2.1,12.1h10.9l-1.8,10.2h-11l-4.2,23.7c-0.5,3.3,0.5,4.7,4.3,4.7h5.8
			l-1.9,10.4h-7.9c-9.4,0-14.9-4-12.9-15.2L-607.9-563z"/>
	</g>
	<g>
		
			<linearGradient id="SVGID_00000089573740565001868840000001549024537740994234_" gradientUnits="userSpaceOnUse" x1="-915.4747" y1="-430.1962" x2="-675.9499" y2="-669.721">
			<stop  offset="0" style="stop-color:#A4083E"/>
			<stop  offset="1" style="stop-color:#F80F5F"/>
		</linearGradient>
		<path style="fill:url(#SVGID_00000089573740565001868840000001549024537740994234_);" d="M-990.1-573.9c12.2,0,19.3,6.4,20.1,17.3
			h-13.4c-0.7-4.2-3.5-6.8-8.7-6.8c-6.9,0-12.4,5.2-14.1,14.8s2,14.7,8.9,14.7c5.1,0,8.7-2.3,11-6.7h13.4
			c-4.5,10.4-14,17.3-26.1,17.3c-14.3,0-22.7-9.9-19.8-25.3C-1016.2-564-1004.3-573.9-990.1-573.9z"/>
		
			<linearGradient id="SVGID_00000027598105077390102390000002476740543159614367_" gradientUnits="userSpaceOnUse" x1="-915.4747" y1="-430.1962" x2="-675.9499" y2="-669.721">
			<stop  offset="0" style="stop-color:#A4083E"/>
			<stop  offset="1" style="stop-color:#F80F5F"/>
		</linearGradient>
		<path style="fill:url(#SVGID_00000027598105077390102390000002476740543159614367_);" d="M-944.8-523.3
			c-12.7,0-21.2-8.3-21.2-20.6c0-16.8,12.8-30,30-30c12.7,0,21.5,8.3,21.5,20.7C-914.6-536.2-927.7-523.3-944.8-523.3z
			 M-943.1-533.9c9.2,0,15.8-8.9,15.8-18.3c0-7.4-4.8-11.1-10.4-11.1c-9.3,0-15.4,8.9-15.4,18.5
			C-953.2-537.5-948.9-533.9-943.1-533.9z"/>
		
			<linearGradient id="SVGID_00000065036562427963304940000008500691799541885057_" gradientUnits="userSpaceOnUse" x1="-915.4747" y1="-430.1962" x2="-675.9499" y2="-669.721">
			<stop  offset="0" style="stop-color:#A4083E"/>
			<stop  offset="1" style="stop-color:#F80F5F"/>
		</linearGradient>
		<path style="fill:url(#SVGID_00000065036562427963304940000008500691799541885057_);" d="M-864-524.1h-12.4l1.1-6.2
			c-3.7,4.2-9.6,6.8-15.8,6.8c-11.5,0-18.4-7.4-16-20.9l5-28.8h12.4l-4.8,27c-1.3,7.9,2.2,12.1,8.9,12.1s11.8-4.2,13.1-12.1l4.8-27
			h12.4L-864-524.1z"/>
		
			<linearGradient id="SVGID_00000054263380455867453760000011197662636425458340_" gradientUnits="userSpaceOnUse" x1="-915.4747" y1="-430.1962" x2="-675.9499" y2="-669.721">
			<stop  offset="0" style="stop-color:#A4083E"/>
			<stop  offset="1" style="stop-color:#F80F5F"/>
		</linearGradient>
		<path style="fill:url(#SVGID_00000054263380455867453760000011197662636425458340_);" d="M-814.4-573.9c12.6,0,20.6,9.8,18,25.1
			c-2.7,15.3-14.3,25.5-26.8,25.5c-7.7,0-12.6-3.8-14.9-7.8l-5.3,30.4h-12.5l12.7-72.4h12.5l-1.2,7.1
			C-828.3-570.2-822-573.9-814.4-573.9z M-819.5-563c-6.6,0-13.9,5.1-15.5,14.4c-1.7,9.3,3.6,14.4,10.4,14.4s13.9-5.3,15.6-14.6
			C-807.5-558.1-812.8-563-819.5-563z"/>
		
			<linearGradient id="SVGID_00000052790979584186274830000015902410508715356333_" gradientUnits="userSpaceOnUse" x1="-915.4747" y1="-430.1962" x2="-675.9499" y2="-669.721">
			<stop  offset="0" style="stop-color:#A4083E"/>
			<stop  offset="1" style="stop-color:#F80F5F"/>
		</linearGradient>
		<path style="fill:url(#SVGID_00000052790979584186274830000015902410508715356333_);" d="M-769.8-523.3
			c-12.7,0-21.2-8.3-21.2-20.6c0-16.8,12.8-30,30-30c12.7,0,21.5,8.3,21.5,20.7C-739.6-536.2-752.8-523.3-769.8-523.3z
			 M-768.2-533.9c9.2,0,15.8-8.9,15.8-18.3c0-7.4-4.8-11.1-10.4-11.1c-9.3,0-15.4,8.9-15.4,18.5
			C-778.2-537.5-773.9-533.9-768.2-533.9z"/>
		
			<linearGradient id="SVGID_00000096045335479349778510000001859743039580087709_" gradientUnits="userSpaceOnUse" x1="-915.4747" y1="-430.1962" x2="-675.9499" y2="-669.721">
			<stop  offset="0" style="stop-color:#A4083E"/>
			<stop  offset="1" style="stop-color:#F80F5F"/>
		</linearGradient>
		<path style="fill:url(#SVGID_00000096045335479349778510000001859743039580087709_);" d="M-696.1-551.2c1.3-7.9-2.2-12.1-8.8-12.1
			c-6.6,0-11.5,4-13.1,11.5l-4.9,27.7h-12.5l8.7-49h12.5l-1.1,6c3.9-4.1,9.6-6.7,15.8-6.7c11.5,0,18.3,7.4,15.9,21l-5.1,28.8h-12.3
			L-696.1-551.2z"/>
		
			<linearGradient id="SVGID_00000023282590876461951500000000096606983468093603_" gradientUnits="userSpaceOnUse" x1="-915.4747" y1="-430.1962" x2="-675.9499" y2="-669.721">
			<stop  offset="0" style="stop-color:#A4083E"/>
			<stop  offset="1" style="stop-color:#F80F5F"/>
		</linearGradient>
		<path style="fill:url(#SVGID_00000023282590876461951500000000096606983468093603_);" d="M-648.8-573.9c7.9,0,12.7,3.7,14.8,7.8
			l1.2-7h12.5l-8.7,49h-12.5l1.3-7.2c-3.6,4.2-9.9,8-17.7,8c-12.4,0-20.5-10.2-17.8-25.5C-672.9-564.1-661.2-573.9-648.8-573.9z
			 M-647.4-563c-6.6,0-13.8,5-15.5,14.3c-1.6,9.3,3.7,14.6,10.4,14.6c6.7,0,13.9-5.1,15.5-14.4C-635.4-557.9-640.7-563-647.4-563z"
			/>
		
			<linearGradient id="SVGID_00000119101662098869461940000012073333100168316046_" gradientUnits="userSpaceOnUse" x1="-915.4747" y1="-430.1962" x2="-675.9499" y2="-669.721">
			<stop  offset="0" style="stop-color:#A4083E"/>
			<stop  offset="1" style="stop-color:#F80F5F"/>
		</linearGradient>
		<path style="fill:url(#SVGID_00000119101662098869461940000012073333100168316046_);" d="M-607.9-563h-5.8l1.8-10.2h5.9l2.1-12.1
			h12.5l-2.1,12.1h10.9l-1.8,10.2h-11l-4.2,23.7c-0.5,3.3,0.5,4.7,4.3,4.7h5.8l-1.9,10.4h-7.9c-9.4,0-14.9-4-12.9-15.2L-607.9-563z"
			/>
	</g>
</g>
</svg>
