<?xml version="1.0" encoding="utf-8"?>
<!-- Generator: Adobe Illustrator 27.1.1, SVG Export Plug-In . SVG Version: 6.00 Build 0)  -->
<svg version="1.1" id="Layer_1" xmlns="http://www.w3.org/2000/svg" xmlns:xlink="http://www.w3.org/1999/xlink" x="0px" y="0px"
	 viewBox="0 0 512 512" style="enable-background:new 0 0 512 512;" xml:space="preserve">
<style type="text/css">
	.st0{fill:#511F74;}
</style>
<g transform="translate(-1)">
	<g>
		<g>
			<g>
				<path class="st0" d="M479.8,261.4L479.8,261.4c-12.5-11.1-28.5-17.5-45.1-18.1v-29c0-3.5-1.6-6.7-4.3-8.9l29.8-46.1l8-10.7
					c0.7-1,1.1-2.2,1.1-3.4c0-0.1,0.1-0.2,0.1-0.3v-0.1c0-0.1-0.1-0.3-0.1-0.4c-0.1-1.6-1-3.1-2.3-4.1l-34-34.2
					c-1.1-1.1-2.6-1.7-4.1-1.7h-69.4c-1.5,0-3,0.6-4.1,1.7l-34,34.2c-1.3,1-2.2,2.4-2.3,4.1c0,0.1-0.1,0.3-0.1,0.4v0.1
					c0,0.1,0.1,0.2,0.1,0.3c0,1.2,0.4,2.4,1.1,3.4l7.8,10.3l30,46.4c-2.7,2.2-4.3,5.4-4.3,8.9v29c-22.8,0.9-43.9,12.5-56.8,31.4
					s-16.1,42.7-8.6,64.3l29.4,85.1c5.6,16.3,21,27.2,38.2,27.2h76.4c17.2,0,32.6-10.9,38.2-27.2l29.4-85.1
					C509.7,311.4,501.7,280.8,479.8,261.4z M450.7,152.6l-32.4,50.1h-15.1l23.7-52h25.4L450.7,152.6z M423.1,214.2v28.9h-57.8v-28.9
					H423.1z M426.5,116l23,23.1h-22.8L415.1,116H426.5z M386.2,116h8h8l11.6,23.1h-39.1L386.2,116z M414.1,150.6l-19.9,43.8
					l-19.9-43.8C374.2,150.6,414.1,150.6,414.1,150.6z M361.9,116h11.4l-11.6,23.1h-22.8L361.9,116z M337.4,152.3l-1.2-1.7h25.4
					l23.7,52H370L337.4,152.3z M459.7,420.3c-4,11.6-15,19.4-27.3,19.5H356c-12.3,0-23.3-7.8-27.3-19.5l-9-25.9
					c23.6-14.4,52.7-16.3,77.9-4.9c19.5,8.4,40.4,12.7,61.6,12.5c2.4,0,4.6-0.1,6.8-0.2L459.7,420.3z M489.1,335.2l-18.9,54.7
					c-23.2,1.8-46.5-2-67.9-11.1c-27.8-12.6-60-10.9-86.5,4.4l-16.6-48c-8.1-23.2-1.3-48.9,17-65.2c11.1-9.9,25.4-15.3,40.3-15.3
					h75.3c19.6,0,38,9.5,49.4,25.5C492.6,296.2,495.5,316.7,489.1,335.2z"/>
			</g>
			<g>
				<path class="st0" d="M475.3,298.8c-2-0.5-4.1,0-5.6,1.5s-2.1,3.6-1.5,5.6c1.9,7.2,1.6,14.8-0.9,21.8l-14.7,42.5
					c-1,3,0.6,6.3,3.6,7.4c3,1,6.3-0.6,7.4-3.6l14.7-42.5c3.2-9.2,3.6-19.1,1.1-28.5C478.8,301,477.3,299.4,475.3,298.8z"/>
			</g>
			<g>
				<path class="st0" d="M462.4,288.5c2-0.7,3.4-2.3,3.8-4.3s-0.3-4.1-1.8-5.5c-9-8-20.6-12.4-32.6-12.4c-3.2,0-5.8,2.6-5.8,5.8
					c0,3.2,2.6,5.8,5.8,5.8c2.3,0,4.6,0.2,6.8,0.6c6.7,1.2,13,4.3,18.1,8.9C458.3,288.7,460.4,289.2,462.4,288.5z"/>
			</g>
		</g>
	</g>
</g>
<g id="g955">
	<g id="g961" transform="translate(215.2383,62.9482)">
		<g id="path963">
			<path class="st0" d="M-37.7,362.6c-2.2,0-4.3-1.3-5.2-3.4c-3-7.2-9.1-31.7-10.2-42.5c-0.3-3.1,1.9-5.8,5-6.1
				c3.1-0.3,5.8,1.9,6.1,5c1,10.2,7,33.5,9.4,39.3c1.2,2.9-0.2,6.1-3,7.3C-36.3,362.5-37,362.6-37.7,362.6z"/>
		</g>
	</g>
	<g id="g965" transform="translate(148.8926,97.3018)">
		<g id="path967">
			<path class="st0" d="M-42.4,331.2c-1.6,0-3.2-0.7-4.3-2.1c-2-2.4-1.6-5.9,0.8-7.9c0.1-0.1,13.1-11.4,16-40.1c0.3-3.1,3-5.3,6.1-5
				c3.1,0.3,5.3,3,5,6.1c-3.4,33.7-19.3,47.1-20,47.7C-39.9,330.8-41.2,331.2-42.4,331.2z"/>
		</g>
	</g>
	<g id="g969" transform="translate(262.7529,7.5)">
		<g id="path971">
			<path class="st0" d="M-71.5,444h-107.8c-3.1,0-5.6-2.5-5.6-5.6c0-15.8,12.8-28.6,28.6-28.6h54.5c3.1,0,5.6,2.5,5.6,5.6
				s-2.5,5.6-5.6,5.6h-54.5c-7.6,0-14.2,5-16.5,11.8h101.3c3.1,0,5.6,2.5,5.6,5.6S-68.4,444-71.5,444z"/>
		</g>
	</g>
	<g id="g969_00000050651469836342143280000005297243254027894712_" transform="translate(262.7529,7.5)">
		<g id="path971_00000007402033755682494780000008372800235174261659_">
			<path class="st0" d="M-51.9,444h-105.9c-3.1,0-5.6-2.5-5.6-5.6s2.5-5.6,5.6-5.6h99.4c-2.3-6.9-8.8-11.8-16.5-11.8h-54.5
				c-3.1,0-5.6-2.5-5.6-5.6s2.5-5.6,5.6-5.6h54.5c15.8,0,28.6,12.8,28.6,28.6C-46.3,441.5-48.8,444-51.9,444z"/>
		</g>
	</g>
	<g id="g973" transform="translate(325.9829,239.0674)">
		<g id="path975">
			<path class="st0" d="M-179.7,147.8c-27.2,0-55.7-10.5-78.2-28.7c-24.2-19.6-37.5-44.8-37.5-71.1V34.3c0-3.1,2.5-5.6,5.6-5.6
				s5.6,2.5,5.6,5.6V48c0,49.9,56.2,88.6,104.5,88.6S-75.2,97.9-75.2,48V34.3c0-3.1,2.5-5.6,5.6-5.6c3.1,0,5.6,2.5,5.6,5.6V48
				c0,26.2-13.3,51.5-37.5,71.1C-124,137.3-152.5,147.8-179.7,147.8z"/>
		</g>
	</g>
	<g id="g977" transform="translate(241.2275,239.0674)">
		<g id="path979">
			<path class="st0" d="M-94.9,147.8c-25.4,0-52.5-29.9-52.5-85.2V34.3c0-3.1,2.5-5.6,5.6-5.6s5.6,2.5,5.6,5.6v28.3
				c0,51,24.2,74,41.3,74s41.3-23,41.3-74V34.3c0-3.1,2.5-5.6,5.6-5.6s5.6,2.5,5.6,5.6v28.3C-42.4,117.9-69.5,147.8-94.9,147.8z"/>
		</g>
	</g>
	<g id="g981" transform="translate(276.0024,359.7627)">
		<g id="path983">
			<path class="st0" d="M-19.6-106.1h-220.1c-1.7,0-3.2-0.7-4.3-2c-1.1-1.3-1.5-2.9-1.2-4.6c5.9-33.9,24.7-55.9,39.4-68.5
				c2.3-2,5.9-1.7,7.9,0.6c2,2.3,1.7,5.9-0.6,7.9c-12.3,10.5-27.8,28.4-34.3,55.4h206.4c-6.3-26.3-21.7-44.2-34-54.9
				c-2.3-2-2.6-5.6-0.6-7.9c2-2.3,5.6-2.6,7.9-0.6c14.6,12.7,33.3,34.8,39,68c0.3,1.6-0.2,3.3-1.2,4.6
				C-16.4-106.8-18-106.1-19.6-106.1z"/>
		</g>
	</g>
	<g id="g985" transform="translate(332.3516,239.5176)">
		<g id="path987">
			<path class="st0" d="M-71.2,39.1h-229.6c-9.9,0-18-8.1-18-18c0-9.9,8.1-18,18-18h229.6c9.9,0,18,8.1,18,18
				C-53.2,31-61.3,39.1-71.2,39.1z M-300.8,14.3c-3.7,0-6.8,3.1-6.8,6.8c0,3.8,3.1,6.8,6.8,6.8h229.6c3.8,0,6.8-3.1,6.8-6.8
				c0-3.8-3.1-6.8-6.8-6.8H-300.8z"/>
		</g>
	</g>
	<g id="g989" transform="translate(245.6797,359.4468)">
		<g id="path991">
			<path class="st0" d="M-31-170.2h-18.1c-3.1,0-5.6-2.5-5.6-5.6s2.5-5.6,5.6-5.6H-31c4.3,0,7.7-3.5,7.7-7.7c0-4.3-3.5-7.7-7.7-7.7
				h-136.6c-4.3,0-7.7,3.5-7.7,7.7c0,4.3,3.5,7.7,7.7,7.7h88.8c3.1,0,5.6,2.5,5.6,5.6s-2.5,5.6-5.6,5.6h-88.8
				c-10.4,0-18.9-8.5-18.9-18.9s8.5-18.9,18.9-18.9H-31c10.4,0,18.9,8.5,18.9,18.9S-20.6-170.2-31-170.2z"/>
		</g>
	</g>
	<g id="g993" transform="translate(196.1157,441.9521)">
		<g id="path995">
			<path class="st0" d="M2.2-279.3h-103.9c-1.8,0-3.4-0.8-4.5-2.3s-1.4-3.3-0.8-5c4.1-13.5,16.8-31,38.9-37.7
				c-1.9-3.2-2.9-6.9-2.9-10.7c0-7.6,6.6-37,21.2-37s21.2,29.4,21.2,37c0,3.9-1,7.6-2.9,10.8c21.3,6.6,35.1,23.9,39.1,37.8
				c0.5,1.7,0.2,3.5-0.9,4.9C5.6-280.1,4-279.3,2.2-279.3z M-93.3-290.5h87c-5.2-9.2-15.7-20-31.5-23.9c-2.9-0.7-5.1-2.7-6.1-5.6
				c-1-2.9-0.4-6.1,1.6-8.5c0,0,0.1-0.1,0.1-0.1c1.5-1.7,2.4-4,2.4-6.5c0-8.3-6.3-24.4-10-25.8c-3.7,1.4-10,17.5-10,25.8
				c0,2.5,0.8,4.8,2.4,6.5c2,2.3,2.7,5.4,1.8,8.2c-0.9,2.9-3.2,5.1-6.2,5.9c0,0-0.1,0-0.1,0C-76.9-310.8-87.7-300.7-93.3-290.5z
				 M-49.9-360.8L-49.9-360.8C-49.9-360.8-49.9-360.8-49.9-360.8z"/>
		</g>
	</g>
	<g id="g1021" transform="translate(80.8062,300.519)">
		<g id="path1023">
			<path class="st0" d="M-7.1-73c7.2,0,7.2-11.2,0-11.2C-14.3-84.1-14.3-73-7.1-73"/>
		</g>
	</g>
	<g id="g1025" transform="translate(129.8228,300.519)">
		<g id="path1027">
			<path class="st0" d="M-19.6-73c7.2,0,7.2-11.2,0-11.2C-26.8-84.1-26.8-73-19.6-73"/>
		</g>
	</g>
	<g id="g1029" transform="translate(178.8394,300.519)">
		<g id="path1031">
			<path class="st0" d="M-32.1-73c7.2,0,7.2-11.2,0-11.2C-39.2-84.1-39.3-73-32.1-73"/>
		</g>
	</g>
	<g id="g1033" transform="translate(226.7119,300.519)">
		<g id="path1035">
			<path class="st0" d="M-44.3-73c7.2,0,7.2-11.2,0-11.2C-51.5-84.1-51.5-73-44.3-73"/>
		</g>
	</g>
	<g id="g1037" transform="translate(275.7285,300.519)">
		<g id="path1039">
			<path class="st0" d="M-56.8-73c7.2,0,7.2-11.2,0-11.2C-63.9-84.1-64-73-56.8-73"/>
		</g>
	</g>
</g>
</svg>
