<?xml version="1.0" encoding="utf-8"?>
<!-- Generator: Adobe Illustrator 27.1.1, SVG Export Plug-In . SVG Version: 6.00 Build 0)  -->
<svg version="1.1" id="Layer_1" xmlns="http://www.w3.org/2000/svg" xmlns:xlink="http://www.w3.org/1999/xlink" x="0px" y="0px"
	 viewBox="0 0 512 512" style="enable-background:new 0 0 512 512;" xml:space="preserve">
<style type="text/css">
	.st0{fill:#511F74;}
</style>
<path class="st0" d="M203.6,47.5L203.6,47.5c0.1,0.1,0.1,0.1,0.2,0.1L203.6,47.5z"/>
<path class="st0" d="M496.2,436.4c-7.6-7.5-17.8-11.7-28.3-11.7c-0.5,0-0.8-0.3-0.9-0.8l-35.1-222.3c-1-6.9-3.9-13.1-7.9-18.3
	c6.9-1,13.3-3.9,18.4-9c6.1-6.1,9.4-14.1,9.4-22.7c0-17.8-14.4-32.1-32.1-32.1h-14.5c0.6-8.9-1.3-18.2-5.5-27
	c-8.3-16.9-23.5-27.9-39-29.1c-0.4-1-0.7-2.1-1.2-3c-6.3-13-17-22.8-29.3-27.1c-9.6-3.3-19.4-2.8-27.8,1.3c-0.9,0.5-1.7,1-2.6,1.6
	c-0.3-1.5-0.8-3-1.3-4.6c-3.3-9.6-9.8-17-18.2-21.1c-19.8-9.6-45.5,1.9-57.1,25.8c-0.3,0.7-0.6,1.5-0.9,2.2
	c-1.9-1.5-3.9-2.8-6.1-3.9c0,0,0,0-0.1,0c-19.9-9.6-45.5,1.9-57.1,25.8c-0.5,1-0.7,2-1.1,3c-15.7,1.2-30.8,12.2-39,29.1
	c-4.3,8.8-6,18.1-5.5,26.9H98.8c-8.6,0-16.6,3.4-22.7,9.4c-6.1,6.1-9.4,14.1-9.4,22.7c0,17.8,14.4,32.1,32.1,32.1h3.5
	c-3.9,5.1-6.6,11.2-7.6,17.8L60.8,415.8c-0.7,5-5.1,8.7-10.1,8.7c-10.6,0-20.7,4.2-28.4,11.8c-7.5,7.6-11.7,17.8-11.7,28.3
	c0,22.2,18,40.2,40.2,40.2h359.3c0.5,0.1,1.1,0.2,1.6,0.2h56.2c22.2,0,40.2-18,40.2-40.2C508,454.2,503.9,444.1,496.2,436.4z
	 M355,79.7c0,0,0.5-0.2,0.8-0.2h0.2c10.9-1,23,7.2,29.2,20.1c3.1,6.5,4.5,13.5,3.9,20H382v-0.1c-3.4-6.1-8-11.5-13.5-15.7
	c-2.9-2.2-5.5-5-7.7-8.3c-3-4.5-5-9.6-5.7-15.2L355,79.7L355,79.7z M358.7,116.6c1.2,1,2.3,1.9,3.5,3h-23c0.6-1.7,1-3.5,0.4-5.3
	v-0.1c-2.5-8-2.2-16.4,0.7-22.8c0,0,0,0,0-0.1c0.2-0.3,0.3-0.6,0.6-1c1.4,5.1,3.7,9.9,6.7,14.2C350.6,109.3,354.4,113.3,358.7,116.6
	z M315,47.3c3.9-0.6,7.5,0.2,10.2,1.1l-0.2,0.1c7.9,2.7,14.8,9,19.3,17.4c-0.6,0.2-1.1,0.5-1.7,0.7c-4.1,1.9-7.6,4.7-10.6,8
	c-1.1-1-2.3-2.1-3.6-3.1c-7.6-5.8-12.3-14.1-13.5-23.4v-0.8H315z M300.7,58c0,0.2,0.2,0.4,0.2,0.6c0.7,2.2,1.5,4.4,2.5,6.5l-0.2,0.2
	c0,0,0.3,0.6,0.5,1c1,1.9,2,3.8,3.2,5.6c0.2,0.3,0.4,0.6,0.7,1c1.4,1.9,2.8,3.8,4.4,5.5c0.3,0.4,0.7,0.7,1,1
	c1.7,1.8,3.5,3.4,5.5,4.9c1.8,1.4,3.4,3,4.9,4.7c0.2,0.2,0.3,0.4,0.5,0.6c-1.8,5.6-2.3,11.7-1.8,18c-8.3-2.8-15.8-9.8-20.2-19
	c-1.6-3.4-2.7-6.8-3.4-10.3C297,70.6,297.9,63.5,300.7,58z M309.6,119.5h-43.1c-1.4-5.9-1.3-11.7,0.3-17.1c0,0,0-0.1,0-0.2
	c0.5-1.7,1.2-3.4,2.2-5c5.5-2.3,10.5-5.8,15-10.2c0.9,2.8,1.8,5.6,3.2,8.4C292.2,106.1,300.2,114.4,309.6,119.5z M269.5,55.3
	c0.3-0.4,0.7-0.7,1-1.1c1.6-1.8,3-3.5,4.4-5.5c0.2-0.3,0.4-0.6,0.6-1c1.2-1.8,2.2-3.7,3.2-5.6c0.2-0.3,0.3-0.6,0.5-1
	c1-2.1,1.8-4.3,2.5-6.5c0-0.2,0.2-0.4,0.2-0.6c0.5,1,0.9,2,1.2,3c2.9,8.3,2,18.2-2.4,27.4c-1.9,3.9-4.2,7.2-6.9,10.1
	c-3.8,4.2-8.4,7.2-13.1,8.8c-0.1,0-0.2,0-0.2,0.1c-1.9,0.6-3.8,1-5.4,1.2s-3.2,0-4.7-0.2v-0.2c0,0,0.1-0.5,0.2-0.8
	c0-0.2,0.2-0.6,0.2-0.8c1.1-6.7,3.9-12.8,8.4-17.8c1.5-1.7,3.1-3.2,4.9-4.6C266,58.8,267.8,57.1,269.5,55.3z M233.7,56.9v-0.3
	c0.5-4.5,1.8-9,3.9-13.2l-0.1,0.1c6.7-13.6,19.4-21.6,30.4-20v0.8c-1.3,9.2-6,17.6-13.6,23.4c-2.4,1.8-4.6,3.9-6.6,6.1
	c-0.6,0.7-1.2,1.5-1.8,2.2c-1.3,1.6-2.5,3.2-3.6,4.9c-0.6,1-1.1,1.8-1.6,2.8c-0.9,1.7-1.8,3.4-2.4,5.1c-0.4,1-0.8,2.1-1.2,3.1
	c-0.2,0.7-0.6,1.4-0.7,2c-0.2,0.6,0-0.1,0-0.2c-0.1-0.3-0.2-0.7-0.3-1c0-0.1-0.1-0.2-0.2-0.3c-0.3-0.7-0.6-1.4-0.8-2.2
	c-0.2-0.4-0.3-0.9-0.5-1.3c-0.2-0.8-0.3-1.6-0.5-2.4c-0.1-0.5-0.2-0.9-0.2-1.4c-0.1-0.9-0.2-1.8-0.2-2.7c0-0.4-0.1-0.8-0.1-1.3
	C233.5,59.7,233.5,58.3,233.7,56.9z M222.3,108.5c1.3-1.5,2.5-3,3.6-4.6c0.4-0.6,0.8-1.1,1.2-1.8c1.4-2.2,2.7-4.3,3.9-6.7
	c0.3-0.7,0.6-1.4,1-2c0.2,0.2,0.5,0.2,0.6,0.4c1.8,1.3,3.5,2.5,5.5,3.5c2.2,1,4.5,1.9,6.8,2.4c0.7,0.2,1.5,0.2,2.2,0.4
	c1.1,0.2,2.2,0.5,3.5,0.6c-1.4,6.1-1.7,12.5-0.6,18.9h-41.1c0,0,0.6-0.4,0.9-0.6c1.7-1,3.4-2.1,5-3.4c0.3-0.2,0.6-0.5,1-0.7
	c1.8-1.5,3.7-3.2,5.4-5C221.5,109.4,221.9,109,222.3,108.5z M206.2,78.3c1.5-1.7,3-3.4,4.3-5.2c0.1-0.2,0.2-0.2,0.2-0.4
	c1.2-1.8,2.2-3.6,3.3-5.5c0.2-0.5,0.5-1,0.7-1.4c1-2,1.8-4.1,2.6-6.2v0.5c0,2.7,0.2,5.3,0.6,7.8c0,0.5,0.2,1,0.3,1.4
	c0.4,2.2,1,4.4,1.8,6.5c0.1,0.3,0.2,0.6,0.2,1s-0.2,0.9-0.2,1.5c-0.6,3.3-1.7,6.7-3.4,10.1c-1,2.2-2.2,4.1-3.6,5.9l-0.1,0.1
	c0,0-0.4,0.6-0.6,0.8c-1.3,1.8-2.7,3.3-4.2,4.7c-0.2,0.2-0.6,0.6-0.8,0.8c-1.5,1.4-3.1,2.6-4.8,3.7c-0.2,0.2-0.5,0.3-0.7,0.4
	c-1.8,1.1-3.6,1.9-5.5,2.6v-7.9c-0.1-1.3-0.3-2.5-0.5-3.7c-0.2-1.7-0.6-3.3-1-5c-0.2-0.5-0.2-1-0.3-1.5c0.2-0.2,0.3-0.4,0.5-0.6
	c1.5-1.6,3-3.2,4.8-4.7c1.8-1.4,3.5-3,5.1-4.7C205.5,79.1,205.9,78.7,206.2,78.3z M203.6,47.6L203.6,47.6h0.2
	C203.7,47.6,203.6,47.6,203.6,47.6v0.7c-1.3,9.2-6,17.6-13.7,23.5c-1.3,1-2.4,2-3.6,3c-0.1-0.1-0.2-0.2-0.2-0.2
	c-1-1.1-2.2-2.2-3.4-3.1c-0.5-0.4-0.9-0.9-1.4-1.2c-1.8-1.3-3.6-2.4-5.5-3.4l-1.7-0.7C180.9,53.4,193,46.1,203.6,47.6z M170.8,104.5
	c1.4-2,2.5-4,3.5-6.2c0.3-0.7,0.6-1.3,0.9-1.9c0.7-1.6,1.3-3.1,1.8-4.8c0.2-0.4,0.3-0.8,0.5-1.2c0.2,0.3,0.3,0.6,0.5,0.9v0.2
	c2.9,6.6,3.2,14.9,0.7,22.9c0,0.2,0,0.2-0.1,0.4c-0.3,1.4-0.9,2.8-1.6,4.3c0,0.2-0.2,0.3-0.2,0.6h-20.7l0.1-0.1c1-1,2.2-2.1,3.5-3
	C164,113,167.8,109,170.8,104.5z M133,99.6c6.3-12.9,18.4-21.1,29.4-20.1c0.3,0,0.6,0.2,1,0.2v0.6c-0.8,5.5-2.7,10.5-5.9,15.2
	c-2.1,3.1-4.7,5.9-7.7,8.3c-1.6,1.2-3.1,2.6-4.6,4c-0.5,0.4-0.9,0.9-1.3,1.4c-1,1-1.9,2.1-2.8,3.1c-0.4,0.6-0.9,1-1.3,1.6
	c-0.9,1.1-1.7,2.3-2.4,3.6c-0.3,0.5-0.6,1-0.9,1.5c-0.1,0.2-0.2,0.4-0.3,0.6H129C128.5,113.1,129.9,106.1,133,99.6z M98.4,167.6
	c-8.8,0-16.1-7.2-16.1-16.1c0-4.3,1.7-8.3,4.7-11.3c3.1-3,7.1-4.7,11.3-4.7h321.3c8.8,0,16.1,7.2,16.1,16.1c0,4.3-1.7,8.3-4.7,11.3
	c-3.1,3.1-7.1,4.7-11.3,4.7H98.4z M467.9,488.9h-35.7c-0.5-0.1-1.1-0.2-1.6-0.2H50.2c-13.3,0-24.1-10.9-24.1-24.1
	c0-6.4,2.5-12.5,7-17c4.7-4.6,10.7-7.1,17.1-7.1c12.9,0,24.1-9.5,26-22.2l34-214.3c1.8-11.8,11.8-20.3,23.8-20.3h258.3
	c12,0,22,8.5,23.8,20.4l35.1,222.4c1.4,8.3,8.4,14.3,16.8,14.3c6.3,0,12.5,2.5,17,7c4.6,4.7,7.1,10.7,7.1,17.1
	C492,478.1,481.2,488.9,467.9,488.9z"/>
<path class="st0" d="M203.7,47.6c-0.1,0-0.1,0-0.2,0v-0.1L203.7,47.6z"/>
<path class="st0" d="M231.4,441.1c-32.9,0-62.2-13-78-38.2c-28.1-44.6-3.6-110.8,54.5-147.5c7.5-4.7,15.6-8.9,23.9-12.4
	c4.1-1.7,8.8,0.2,10.5,4.3s-0.2,8.8-4.3,10.5c-7.5,3.1-14.7,6.9-21.5,11.2c-50.7,32-72.9,88.3-49.6,125.4s83.7,41.2,134.5,9.3
	c38.3-24.2,61.8-63.8,58.6-98.6c-0.1-1-0.7-1.7-1.1-2s-1.2-0.7-2.2-0.5l-2.6,0.6c-3.2,0.8-7.1,1.8-9.6,2.2
	c-37.7,6.3-72.4,23.6-100.3,50.1l-36.7,34.9c-5.1,4.8-13.3,5.3-18.8,1.2c-6.3-4.5-8-13.6-3.5-20.2l9.6-13.6
	c32.5-45.7,79-77.3,131.1-89c3.5-0.7,6.5-1.4,9.5-1.9c1.4-0.2,1.8-1.1,2-1.8c0.2-0.6,0.2-1.7-1-2.7c-16.9-12.8-41.8-17.7-68-13.4
	c-4.4,0.7-8.5-2.2-9.2-6.7c-0.7-4.3,2.2-8.5,6.7-9.2c31.1-5,59.5,0.8,80.2,16.5c6,4.5,8.7,11.9,7,19.2c-1.7,7.2-7.4,12.5-14.7,13.8
	c-2.8,0.5-5.6,1.1-8.5,1.7c-48.4,10.8-91.6,40.2-121.8,82.6l-1.4,2l26.5-25.2c30.3-28.7,67.9-47.5,108.8-54.3
	c2.2-0.3,5.5-1.2,8.3-1.9l3-0.7c5.5-1.1,10.9,0,15.3,3.3c4.3,3.2,7.1,8,7.6,13.4c3.9,41.3-21.9,85.9-65.9,113.7
	c-25.5,16-53.2,23.8-78.6,23.8L231.4,441.1z"/>
</svg>
