<?xml version="1.0" encoding="utf-8"?>
<!-- Generator: Adobe Illustrator 27.1.1, SVG Export Plug-In . SVG Version: 6.00 Build 0)  -->
<svg version="1.1" id="Layer_1" xmlns="http://www.w3.org/2000/svg" xmlns:xlink="http://www.w3.org/1999/xlink" x="0px" y="0px"
	 viewBox="0 0 512 512" style="enable-background:new 0 0 512 512;" xml:space="preserve">
<style type="text/css">
	.st0{fill:#511F74;}
</style>
<path class="st0" d="M50,247.4c0,0.3,0,0.7,0.1,1l28,210c1.5,11.1,10.9,19.3,22.1,19.3H414c12.3,0,22.3-10,22.3-22.3v-29.2
	l29.6-222.4v-0.1c0-0.2,0-0.3,0-0.5c0-0.1,0-0.2,0-0.3v-0.1v-29.7c0-4.1-3.3-7.4-7.4-7.4H310c-4.1,0-7.4,3.3-7.4,7.4v29.7v0.1
	c0,0.1,0,0.2,0,0.3c0,0.2,0,0.3,0,0.5v0.1l13.7,102.7c-14.9-1.1-19.6-5.2-20.9-7.1c-1-1.4-1.3-3.1-0.8-4.8c1-2.2,0.8-4.8-0.6-6.9
	s-3.8-3.3-6.4-3.3c-14.8,0-26.2,2.9-35.6,7.2l5.8-43.3c0-0.3,0.1-0.7,0.1-1c0-36.3-20.4-69.5-52.7-86c0.6-1.4,0.8-2.9,0.6-4.3
	l-7.4-44.6c-0.6-3.6-3.7-6.2-7.3-6.2h-7.4V76.6h52c4.1,0,7.4-3.3,7.4-7.4V39.4c0-4.1-3.3-7.4-7.4-7.4c-0.2,0-0.3,0-0.5,0l-111.4,7.4
	c-3,0.2-5.6,2.2-6.6,5.1l-7.4,22.3c-1.3,3.9,0.8,8.1,4.7,9.4c0.8,0.3,1.6,0.4,2.3,0.4h7.4v29.7h-7.4c-3.6,0-6.7,2.6-7.3,6.2
	l-7.4,44.6c-0.2,1.5,0,3,0.6,4.3C70.4,177.9,50,211.1,50,247.4z M354.6,462.9H175.3c-3.6,0-6.5-2.9-6.5-6.5v-76.2
	c0-3.6,2.9-6.5,6.5-6.5h180.2c3.6,0,6.5,2.9,6.5,6.5v76.2c0,3.6-2.9,6.5-6.5,6.5L354.6,462.9L354.6,462.9z M191.1,344h148.6v14.9
	H191.1V344z M421.4,455.4c0,4.1-3.3,7.4-7.4,7.4h-38.1c0.7-2.1,1-4.3,1-6.5v-23.2h44.6v22.3H421.4z M422.4,418.3h-45.5v-38.1
	c0-11.8-9.6-21.3-21.3-21.3h-1v-22.3c0-0.2,0-0.4,0-0.6l0,0v-0.1l0,0c-0.6-4.9-2-9.6-4.3-13.9c-3.8-7.4-10.7-12.6-18.7-14.3
	l-13-97.3h131.6L422.4,418.3z M317.4,180.6h133.7v14.9H317.4V180.6z M283,307.6c6.3,9.4,20.4,14.1,41.9,14.1c5.6,0,9.4,2.2,12.1,6.9
	c0.1,0.2,0.2,0.3,0.3,0.5H225.5c3.2-2.4,6.2-5,9.2-7.5c12.1-10.2,23.6-20,45.1-21.9C280.3,302.6,281.4,305.3,283,307.6z M129.8,53.9
	l98.5-6.6v14.3H127.2L129.8,53.9z M139.1,76.6h29.7v29.7h-29.7V76.6z M118.2,150.9l5-29.7h61.7l5,29.7H118.2z M146.6,165.7h14.9
	c44.9,0,81.4,36.3,81.7,81.2l-7.3,54.6c-3.8,2.9-7.3,5.8-10.8,8.7c-12,10.1-22.3,18.9-41.4,18.9c-4.1,0-7.4,3.3-7.4,7.4v22.3h-1
	c-11.8,0-21.3,9.6-21.3,21.3v76.2c0,2.2,0.3,4.4,1,6.5h-54.9c-3.7,0-6.9-2.8-7.4-6.4L64.9,246.9C65.2,202,101.6,165.8,146.6,165.7z"
	/>
<path class="st0" d="M265.4,388.6c-16.4,0-29.7,13.3-29.7,29.7c0,16.4,13.3,29.7,29.7,29.7s29.7-13.3,29.7-29.7
	S281.8,388.6,265.4,388.6z M265.4,433.1c-8.2,0-14.9-6.7-14.9-14.9c0-8.2,6.7-14.9,14.9-14.9c8.2,0,14.9,6.7,14.9,14.9
	C280.3,426.5,273.6,433.1,265.4,433.1z"/>
<path class="st0" d="M384.3,284.6c21.2,0,37.1-9.6,37.1-22.3c0-12.7-16-22.3-37.1-22.3c-21.2,0-37.1,9.6-37.1,22.3
	C347.2,275,363.1,284.6,384.3,284.6z M384.3,254.9c14.4,0,22.3,5.6,22.3,7.4s-7.9,7.4-22.3,7.4s-22.3-5.6-22.3-7.4
	S369.9,254.9,384.3,254.9z"/>
<path class="st0" d="M109.4,277.1h89.1c4.1,0,7.4-3.3,7.4-7.4v-44.6c0-4.1-3.3-7.4-7.4-7.4h-89.1c-4.1,0-7.4,3.3-7.4,7.4v44.6
	C102,273.8,105.3,277.1,109.4,277.1z M116.9,232.6h74.3v29.7h-74.3C116.9,262.3,116.9,232.6,116.9,232.6z"/>
</svg>
