<?xml version="1.0" encoding="utf-8"?>
<!-- Generator: Adobe Illustrator 27.1.1, SVG Export Plug-In . SVG Version: 6.00 Build 0)  -->
<svg version="1.1" id="Layer_1" xmlns="http://www.w3.org/2000/svg" xmlns:xlink="http://www.w3.org/1999/xlink" x="0px" y="0px"
	 viewBox="0 0 512 512" style="enable-background:new 0 0 512 512;" xml:space="preserve">
<style type="text/css">
	.st0{fill:#511F74;}
</style>
<g id="_x30_30---Pickling-Food">
	<g id="Shape">
		<path class="st0" d="M392.7,392c-3.8,0-7,3.1-7,7c0,15.4-12.5,27.9-27.9,27.9c-3.8,0-7,3.1-7,7s3.1,7,7,7
			c23.1,0,41.7-18.7,41.7-41.7C399.6,395.2,396.5,392,392.7,392z"/>
	</g>
	<g>
		<g id="Shape_00000124875213037697073730000007755249873569322882_">
			<path class="st0" d="M213.2,372.9c-22.6,8-34.5,32.7-26.5,55.3c8,22.6,32.7,34.5,55.3,26.5c28.6-11.1,55.3-26.6,79-46.1
				c39.8-31.4,69.8-73.4,86.9-121.1c7.7-22.5-4.2-47-26.6-55s-47.1,3.8-55.2,26.1C296.8,341.4,213.9,372.6,213.2,372.9L213.2,372.9z
				 M339.1,263.3c5.5-15.4,22.3-23.4,37.6-18c15.4,5.5,23.4,22.3,18,37.6c-16.2,45.3-44.7,85.1-82.5,114.9
				c-22.5,18.4-47.7,33.3-74.8,43.9c-15.4,5.4-32.2-2.7-37.5-18.1c-5.4-15.4,2.7-32.1,18.1-37.5
				C221.5,384.7,307.7,352.2,339.1,263.3L339.1,263.3z"/>
		</g>
		<g id="Oval">
			<circle class="st0" cx="225.9" cy="408.7" r="7"/>
		</g>
		<g id="Oval_00000091705241621944748430000013324356466622971529_">
			<circle class="st0" cx="268.3" cy="409.5" r="7"/>
		</g>
		<g id="Oval_00000044178181746421137730000006355404440676368055_">
			<circle class="st0" cx="283.9" cy="372" r="7"/>
		</g>
		<g id="Oval_00000096019226030790426120000007418709665904084380_">
			<circle class="st0" cx="324.3" cy="359.1" r="7"/>
		</g>
		<g id="Oval_00000161623471966806090290000015392142046386724497_">
			<circle class="st0" cx="332.9" cy="322.5" r="7"/>
		</g>
		<g id="Oval_00000032648143447136851670000010667361648880657576_">
			<circle class="st0" cx="364.7" cy="296.8" r="7"/>
		</g>
		<g id="Oval_00000145034588345617773830000009852631932958390146_">
			<circle class="st0" cx="353.4" cy="270.3" r="7"/>
		</g>
	</g>
	<g id="Shape_00000003809020077688212810000007238047629866908837_">
		<path class="st0" d="M138.5,270.2c-17.5,2.1-33,12.5-41.5,28s-9,34.1-1.3,50.1c0.9,1.7,0.5,3.8-0.8,5.2
			c-5.9,6.5-5.4,16.6,1.2,22.4l2.8,2.5c6.5,5.9,16.6,5.4,22.4-1.2c1.3-1.3,3.2-1.8,4.9-1.2c26,9.4,55.1-2.1,67.7-26.7
			c11.1-22.2,6-49-12.3-65.5c8-5.1,17.3-7.8,26.7-7.6c2.1,0,3.9-1,5-2.8s1.1-3.9,0.1-5.7c-1-1.8-2.9-2.9-4.9-2.9
			c-5.5,0-10.8,0.6-16.2,1.9l3.5-4.9c1.3-1.7,1.4-3.8,0.5-5.7c-0.9-1.9-2.7-3.1-4.7-3.3c-2.1-0.2-4,0.8-5.2,2.5l-3.5,4.9
			c-0.6-5.4-2-10.7-3.8-15.8c-1.2-2.9-4.5-4.4-7.4-3.2s-4.4,4.5-3.2,7.4c3.4,8.9,4.2,18.5,2.1,27.8
			C160.9,271.1,149.6,268.9,138.5,270.2L138.5,270.2z M183.7,344.1c-10,19.6-32.9,28.6-53.5,21.2c-6.1-2.2-13-0.6-17.3,4.2
			c-1.7,1.9-4.6,2-6.3,0.4l-2.8-2.5c-0.9-0.8-1.4-2-1.5-3.2c0-1.3,0.4-2.4,1.3-3.3c4.3-4.8,5.3-11.8,2.4-17.6
			c-8.8-18.3-3.6-40.2,12.3-52.8c16-12.5,38.5-12.2,54.3,0.6C188.2,304,192.9,326.1,183.7,344.1L183.7,344.1z"/>
	</g>
	<g id="Shape_00000156553931752858303080000010601138292973119162_">
		<path class="st0" d="M143.4,292.6c-9.1,0.4-17.7,4.8-23.3,12c-5.7,7.2-8,16.4-6.4,25.5c0.5,3.1,3.5,5.2,6.6,4.6
			c3.1-0.5,5.2-3.5,4.6-6.6c-1.1-5.8,0.4-11.8,4.1-16.4s9.1-7.4,15-7.8c3.1-0.2,5.5-2.9,5.4-6C149.2,294.9,146.6,292.5,143.4,292.6
			L143.4,292.6z"/>
	</g>
</g>
<g>
	<g id="g4969" transform="translate(416,424.5)">
		<g id="path4971">
			<path class="st0" d="M-36.3-291.5h-247.4c-13.4,0-24.3-10.9-24.3-24.3v-26.6c0-28,22.8-50.8,50.8-50.8h194.4
				c28,0,50.8,22.8,50.8,50.8v26.6C-12-302.4-22.9-291.5-36.3-291.5z M-257.2-380c-20.7,0-37.6,16.9-37.6,37.6v26.6
				c0,6,5.1,11.1,11.1,11.1h247.4c6,0,11.1-5.1,11.1-11.1v-26.6c0-20.7-16.9-37.6-37.6-37.6H-257.2z"/>
		</g>
	</g>
	<g id="g5041" transform="translate(390.999,404.5)">
		<g id="path5043">
			<path class="st0" d="M-135,79.2c-45.4,0-88.8-1.9-119.1-5.1c-30.9-3.3-56.7-24.7-65.8-54.5c-15.5-51.2-19.3-94.8-13.5-150.3
				c0,0,0-0.1,0-0.1c5.3-44,25.7-81.9,58.9-109.6c8.6-7.3,13.6-18,13.6-29.5v-8.4c0-3.7,3-6.6,6.6-6.6s6.6,3,6.6,6.6v8.4
				c0,15.4-6.7,29.8-18.4,39.7c-30.6,25.5-49.3,60.4-54.3,101c-5.7,53.7-1.9,95.7,13,145c7.5,24.7,28.9,42.4,54.6,45.1
				c29.9,3.2,72.8,5.1,117.7,5.1c44.8,0,87.7-1.8,117.7-5.1c24-2.6,44.5-18.7,53.5-42.1c3.7-9.7,6-20.1,8-30
				c8.2-39.6,10.2-78.2,6.1-117.9c-5-40.7-23.8-75.6-54.3-101c-11.7-9.7-18.4-24.2-18.4-39.7v-8.4c0-3.7,3-6.6,6.6-6.6
				s6.6,3,6.6,6.6v8.4c0,11.5,5,22.3,13.6,29.5c33.1,27.6,53.5,65.5,58.9,109.6c0,0,0,0.1,0,0.1c4.2,41.1,2.2,81-6.3,121.9
				C55.1,1.8,52.6,13,48.6,23.6C37.8,51.6,13.1,71-15.9,74.1C-46.3,77.4-89.7,79.2-135,79.2z"/>
		</g>
	</g>
</g>
<g>
	<g id="g4981" transform="translate(309.9199,245.7314)">
		<g id="path4983">
			<path class="st0" d="M-51.8,18.4c-6.2,0-12.4-1.1-18.4-3.3c-27.8-10.2-42.1-41-32-68.7l0,0c10.1-27.7,41-42.1,68.7-32
				c13.4,4.8,24.1,14.7,30.2,27.7c6.1,13,6.7,27.6,1.8,41C-6.4-3.5-16.3,7.3-29.2,13.3C-36.4,16.7-44.1,18.4-51.8,18.4z M-91.8-49.8
				c-8,22,3.4,46.4,25.4,54.5c10.6,3.9,22.2,3.4,32.5-1.4c10.3-4.8,18.1-13.3,22-24c3.9-10.7,3.4-22.2-1.4-32.6
				c-4.8-10.3-13.3-18.1-23.9-21.9C-59.3-83.2-83.7-71.8-91.8-49.8L-91.8-49.8z"/>
		</g>
	</g>
	<g id="g4985" transform="translate(378.4106,243.8604)">
		<g id="path4987">
			<path class="st0" d="M-114.8-42.9c-0.6,0-1.3-0.1-1.9-0.3c-2.9-1.1-4.3-4.3-3.3-7.1l3.7-10c1.1-2.9,4.2-4.3,7.1-3.3
				c2.9,1.1,4.3,4.3,3.3,7.1l-3.7,10C-110.4-44.2-112.5-42.9-114.8-42.9z"/>
		</g>
	</g>
	<g id="g4989" transform="translate(404.9331,211.1494)">
		<g id="path4991">
			<path class="st0" d="M-121.8,14c-0.6,0-1.3-0.1-1.9-0.3l-10-3.7c-2.9-1.1-4.3-4.3-3.3-7.1c1.1-2.9,4.2-4.3,7.1-3.3l10,3.7
				c2.9,1.1,4.3,4.3,3.3,7.1C-117.4,12.7-119.5,14-121.8,14z"/>
		</g>
	</g>
	<g id="g4993" transform="translate(350.6401,230.9102)">
		<g id="path4995">
			<path class="st0" d="M-107.6-20.4c-0.6,0-1.3-0.1-1.9-0.3l-10-3.7c-2.9-1.1-4.3-4.3-3.3-7.1c1.1-2.9,4.3-4.3,7.1-3.3l10,3.7
				c2.9,1.1,4.3,4.3,3.3,7.1C-103.2-21.7-105.3-20.4-107.6-20.4z"/>
		</g>
	</g>
	<g id="g4997" transform="translate(358.6494,189.5664)">
		<g id="path4999">
			<path class="st0" d="M-109.7,51.5c-0.6,0-1.3-0.1-1.9-0.3c-2.9-1.1-4.3-4.3-3.3-7.1l3.7-10c1.1-2.9,4.3-4.3,7.1-3.3
				c2.9,1.1,4.3,4.3,3.3,7.1l-3.7,10C-105.3,50.2-107.4,51.5-109.7,51.5z"/>
		</g>
	</g>
</g>
</svg>
