<?xml version="1.0" encoding="utf-8"?>
<!-- Generator: Adobe Illustrator 27.1.1, SVG Export Plug-In . SVG Version: 6.00 Build 0)  -->
<svg version="1.1" id="Layer_1" xmlns="http://www.w3.org/2000/svg" xmlns:xlink="http://www.w3.org/1999/xlink" x="0px" y="0px"
	 viewBox="0 0 512 512" style="enable-background:new 0 0 512 512;" xml:space="preserve">
<style type="text/css">
	.st0{fill:#511F74;}
</style>
<g id="_x33_5_Biryani">
	<g>
		<path class="st0" d="M228.3,170.5c-3.1,0.9-4.9,4.2-4,7.4c0.9,3.1,4.2,4.9,7.4,4c13.6-4,19.8-19.3,18.7-31.7
			c-1.7-19.1-21.7-41.6-20.9-58.3c0.4-8.3,5.3-16.3,12.5-20.4c2.8-1.6,3.8-5.2,2.3-8c-1.7-2.8-5.3-3.8-8-2.3
			c-10.7,6.1-17.9,17.9-18.5,30.2c-1.3,25.4,19,38.7,20.9,59.9C239.1,159.1,235.5,168.4,228.3,170.5z"/>
		<path class="st0" d="M169,149c-3.1,0.9-4.9,4.2-4,7.4c0.9,3.1,4.2,4.9,7.4,4c13.6-4,19.8-19.3,18.7-31.7
			c-1.7-19.1-21.7-41.6-20.9-58.3c0.4-8.3,5.3-16.3,12.5-20.4c2.8-1.6,3.8-5.2,2.3-8c-1.7-2.8-5.3-3.8-8-2.3
			c-10.7,6.1-17.9,17.9-18.5,30.2c-1.3,25.8,19,38.3,20.9,59.9C179.9,137.6,176.3,146.9,169,149L169,149z"/>
		<path class="st0" d="M109.9,170.5c-3.1,0.9-4.9,4.2-4,7.4c0.9,3.1,4.2,4.9,7.4,4c13.6-4,19.8-19.3,18.7-31.7
			c-1.7-19.1-21.7-41.6-20.9-58.3c0.4-8.3,5.3-16.3,12.5-20.4c2.8-1.6,3.8-5.2,2.3-8c-1.7-2.8-5.3-3.8-8-2.3
			c-10.7,6.1-17.9,17.9-18.5,30.1c-1.3,25.4,19,38.7,20.9,59.9C120.8,159.1,117.2,168.4,109.9,170.5L109.9,170.5z"/>
		<path class="st0" d="M97.8,473.1h316.6c36.8,0,70.4-18.7,89.9-50.2l0,0c7.5-12.1-1.1-27.6-15.3-27.6h-7.7
			c13.9-34.4-9.6-71.8-45.6-75.3c-2.9-23.2-16.9-42.9-36.3-54c6.6-16.4,14.6-42,11.4-62.9l44.8-44.8c5.6-5.5,13.2-5.5,17.4-5
			c7.8,1,15.5-1.8,21.1-7.4c15-15,5.9-40.6-14.8-43.1c-2.5-20.4-28-30-43.2-14.8c-5.7,5.7-8.3,13.3-7.4,21.2c0.9,7-1,13.3-5.1,17.4
			l-44.7,44.7c-39.6-6.2-115.9,29.7-138.1,62.9c-13.3,4.6-25.2,13.1-33.9,24.6c-21-9.8-47.2-6.1-64.7,11.1
			c-39.5-6.1-75.3,19.8-82.7,57.4c-27.5-0.4-43.1,31.4-26.2,52.7c0.8,1,1.3,2.5,0.6,3.7c-2.2,3.7-3.6,7.6-4.9,11.7h-5.9
			c-14.1,0-22.8,15.5-15.3,27.6C27.4,454.3,61,473.1,97.8,473.1L97.8,473.1z M431.9,134.8c6.7-6.7,9.8-16.6,8.4-27.3
			c-0.5-4.1,0.9-8.3,3.9-11.4c9.1-9.1,24.9-1.3,22.9,11.7c-0.3,1.9,0.4,3.7,1.7,5.1c1.4,1.4,3.2,2,5.1,1.7
			c12.6-2.1,20.7,13.6,11.5,22.8c-3,3-7.2,4.5-11.3,4c-10.8-1.3-20.4,1.7-27.2,8.4l-40.2,40.2c-1.3-2.6-4.5-7.1-6.3-8.9
			c-1.8-1.8-5.8-4.8-8.8-6.3L431.9,134.8z M259.1,230.2c25.4-24.8,108.5-65.2,133-40.6c14.9,14.9,4.3,51.5-3.6,71.4
			c-20.1-7.5-43.4-5.2-61.2,4.9C313.5,242.3,287,228.1,259.1,230.2L259.1,230.2z M63.1,339.4c3.4,0.8,6.9-1.6,7.3-5.1
			c3.8-34.4,36.4-59.5,72.7-52.4c2.1,0.4,4.1-0.3,5.5-1.9c14.8-16.3,39.1-19.4,57.1-8.7c2.7,1.7,6.3,0.8,8-1.9
			c25.8-39.8,85.8-36,106.3,7.3c1.7,3.4,5.9,4.3,8.7,2.4c38.5-26.9,93-1.1,95.6,46.9c0.2,3.1,2.8,5.6,6,5.6
			c33.1,0,53.3,35.9,38,63.7H41.4c0.8-2,1.8-3.9,2.7-5.8c3-5.3,2.5-12-1.6-17C30.5,357.3,44.5,335.2,63.1,339.4L63.1,339.4z
			 M23,407.2H489c4.8,0,7.8,5.3,5.2,9.5c-17.4,27.9-47.3,44.5-79.9,44.5H97.8c-32.6,0-62.5-16.7-79.9-44.5
			C15.2,412.5,18.2,407.2,23,407.2L23,407.2z"/>
		<path class="st0" d="M105.1,345.3c3.2,0,5.9-2.6,5.9-5.9c0-9.8,8-17.8,17.8-17.8c3.2,0,5.9-2.6,5.9-5.9s-2.6-5.9-5.9-5.9
			c-16.4,0-29.7,13.3-29.7,29.7C99.1,342.7,101.8,345.3,105.1,345.3L105.1,345.3z"/>
		<path class="st0" d="M182.8,310.9c2.8,1.7,6.5,0.7,8.1-2.1c5-8.3,15.9-11.3,24.4-6.2c2.8,1.7,6.5,0.8,8.1-2.1
			c1.7-2.8,0.8-6.5-2.1-8.1c-14-8.3-32.3-3.8-40.7,10.3C179,305.6,180,309.2,182.8,310.9L182.8,310.9z"/>
		<path class="st0" d="M147.3,357.2c9.7,1.5,16.5,10.6,14.9,20.3c-0.5,3.2,1.8,6.3,5,6.8c3.4,0.5,6.3-1.9,6.8-5
			c2.5-16.3-8.7-31.4-24.9-33.8c-3.2-0.5-6.3,1.8-6.8,5C141.8,353.7,144,356.7,147.3,357.2z"/>
		<path class="st0" d="M334.1,313.4c2.8,1.7,6.5,0.7,8.1-2.1c5-8.4,16-11.3,24.4-6.2c2.8,1.7,6.5,0.8,8.1-2.1
			c1.7-2.8,0.8-6.5-2.1-8.1c-14.1-8.4-32.3-3.8-40.7,10.3C330.4,308.1,331.3,311.7,334.1,313.4z"/>
		<path class="st0" d="M246.7,358.3c15.1,6.8,32.6-0.2,39.2-15.1c1.4-3,0-6.5-3-7.8c-2.9-1.4-6.5,0-7.8,3c-4,9-14.5,13-23.5,9
			c-3-1.4-6.5,0-7.8,3C242.3,353.5,243.6,357,246.7,358.3L246.7,358.3z"/>
		<path class="st0" d="M406.3,377.4c16,3.7,32-6.1,35.7-22.1c0.8-3.1-1.2-6.4-4.4-7.2c-3.1-0.8-6.4,1.2-7.2,4.4
			c-2.3,9.6-11.9,15.5-21.5,13.2c-3.2-0.8-6.4,1.2-7.2,4.4C401.1,373.5,403.2,376.7,406.3,377.4L406.3,377.4z"/>
	</g>
</g>
</svg>
