<?xml version="1.0" encoding="utf-8"?>
<!-- Generator: Adobe Illustrator 27.1.1, SVG Export Plug-In . SVG Version: 6.00 Build 0)  -->
<svg version="1.1" id="Capa_1" xmlns="http://www.w3.org/2000/svg" xmlns:xlink="http://www.w3.org/1999/xlink" x="0px" y="0px"
	 viewBox="0 0 512 512" style="enable-background:new 0 0 512 512;" xml:space="preserve">
<style type="text/css">
	.st0{fill:#511F74;}
</style>
<g>
	<g>
		<g>
			<path class="st0" d="M253.4,474.8c-120.7,0-218.8-98.2-218.8-218.8c0-58.4,22.8-113.4,64.1-154.7c41.3-41.3,96.3-64,154.7-64
				s113.4,22.7,154.7,64c41.3,41.3,64.1,96.2,64.1,154.7c0,26.8-4.8,52.8-14.1,77.5c-1.3,3.3-5,5-8.3,3.7c-3.3-1.3-5-5-3.7-8.3
				c8.8-23.2,13.3-47.7,13.3-72.9c0-113.5-92.4-205.9-206-205.9s-206,92.4-206,205.9c0,113.6,92.4,206,206,206
				c75.4,0,144.6-41.1,180.8-107.3c1.7-3.1,5.6-4.2,8.7-2.6c3.1,1.7,4.2,5.6,2.6,8.7C407,431.2,333.5,474.8,253.4,474.8z"/>
		</g>
		<g>
			<path class="st0" d="M253.5,412.2c-21.2,0-40.9-9.8-53.7-26.4c-20.8,2.7-41.6-4.4-56.6-19.3c-15-15-22-35.8-19.3-56.6
				c-16.6-12.9-26.4-32.6-26.4-53.7c0-21.2,9.8-40.9,26.4-53.7c-2.7-20.8,4.4-41.6,19.3-56.6c15-15,35.8-22,56.6-19.3
				c8.3-10.7,19.7-18.8,32.7-23.1c3.6-1.2,7.6,0.8,8.8,4.4c1.2,3.6-0.8,7.6-4.4,8.8c-11.4,3.8-21.4,11.3-28.1,21.3
				c-1.6,2.3-4.4,3.5-7.1,3c-17.6-3.5-35.8,2-48.5,14.8c-12.8,12.8-18.3,30.9-14.8,48.5c0.5,2.8-0.6,5.6-3,7.1
				c-15,10-23.9,26.8-23.9,44.8c0,18,8.9,34.7,23.9,44.8c2.3,1.6,3.5,4.4,2.9,7.1c-3.5,17.6,2,35.8,14.8,48.5s30.9,18.3,48.5,14.8
				c2.8-0.5,5.6,0.6,7.1,3c10,15,26.8,23.9,44.8,23.9c18,0,34.7-8.9,44.8-23.9c1.6-2.3,4.4-3.5,7.1-2.9c17.6,3.5,35.8-2,48.5-14.8
				c12.8-12.8,18.3-30.9,14.8-48.5c-0.5-2.8,0.6-5.6,3-7.1c15-10,23.9-26.8,23.9-44.8c0-18-8.9-34.7-23.9-44.8
				c-2.3-1.6-3.5-4.4-2.9-7.1c3.5-17.6-2-35.8-14.8-48.5c-12.8-12.8-30.9-18.3-48.5-14.8c-2.8,0.5-5.6-0.6-7.1-2.9
				c-7.7-11.5-19.9-19.8-33.3-22.7c-3.8-0.8-6.1-4.5-5.3-8.3s4.5-6.1,8.3-5.3c15.7,3.4,29.5,12.2,39.2,24.8
				c20.8-2.7,41.6,4.4,56.6,19.3c15,15,22,35.8,19.3,56.6c16.6,12.9,26.4,32.6,26.4,53.7c0,21.2-9.8,40.9-26.4,53.7
				c2.7,20.8-4.4,41.6-19.3,56.6c-15,15-35.8,22-56.6,19.3C294.3,402.4,274.6,412.2,253.5,412.2z"/>
		</g>
		<g>
			<g>
				<path class="st0" d="M237.4,203.9c-3.2,0-6.1-2.2-6.8-5.5c-7.4-33.3-32.4-59.3-32.7-59.6c-2.7-2.8-2.6-7.2,0.1-9.8
					c2.8-2.7,7.2-2.6,9.8,0.1c1.1,1.2,28.1,29.1,36.3,66.2c0.8,3.8-1.5,7.5-5.3,8.3C238.4,203.8,237.9,203.9,237.4,203.9z"/>
			</g>
			<g>
				<path class="st0" d="M304,385.1c-1.8,0-3.6-0.7-5-2.1c-1.1-1.2-28.1-29.1-36.3-66.2c-0.8-3.8,1.5-7.5,5.3-8.3
					c3.8-0.8,7.5,1.5,8.3,5.3c7.4,33.2,32.4,59.3,32.7,59.6c2.7,2.8,2.6,7.2-0.1,9.8C307.5,384.4,305.7,385.1,304,385.1z"/>
			</g>
		</g>
		<g>
			<g>
				<path class="st0" d="M198.1,231.3c-1.2,0-2.5-0.3-3.6-1c-28.3-17.1-63-17.8-63.3-17.8c-3.8-0.1-6.9-3.2-6.8-7.1
					c0.1-3.8,3.2-6.9,6.9-6.9c0,0,0.1,0,0.1,0c1.6,0,38.6,0.7,70.3,19.8c3.3,2,4.4,6.3,2.4,9.5C202.8,230.1,200.5,231.3,198.1,231.3
					z"/>
			</g>
			<g>
				<path class="st0" d="M375.5,313.6C375.5,313.6,375.4,313.6,375.5,313.6c-1.7,0-38.7-0.7-70.4-19.8c-3.3-2-4.4-6.3-2.4-9.5
					c2-3.3,6.3-4.4,9.5-2.4c28.5,17.1,63,17.8,63.3,17.8c3.8,0.1,6.9,3.2,6.9,7.1C382.4,310.5,379.3,313.6,375.5,313.6z"/>
			</g>
		</g>
		<g>
			<g>
				<path class="st0" d="M131.3,313.6c-1.8,0-3.6-0.7-5-2.1c-2.7-2.8-2.6-7.2,0.1-9.8c1.2-1.1,29.1-28,66.1-36.3
					c3.7-0.8,7.5,1.5,8.3,5.3c0.8,3.7-1.5,7.5-5.3,8.3c-33.1,7.5-59.2,32.5-59.5,32.7C134.8,312.9,133,313.6,131.3,313.6z"/>
			</g>
			<g>
				<path class="st0" d="M312.7,247c-3.2,0-6-2.2-6.8-5.4c-0.8-3.7,1.5-7.5,5.3-8.3c33.2-7.5,59.2-32.5,59.5-32.7
					c2.8-2.7,7.2-2.6,9.8,0.1c2.7,2.8,2.6,7.2-0.1,9.8c-1.2,1.1-29.1,28-66.1,36.3C313.7,246.9,313.2,247,312.7,247z"/>
			</g>
		</g>
		<g>
			<g>
				<path class="st0" d="M202.8,385.1c0,0-0.1,0-0.1,0c-3.8-0.1-6.9-3.2-6.9-7.1c0-1.8,0.9-44.1,24.1-76.8c2.2-3.1,6.6-3.9,9.7-1.6
					c3.1,2.2,3.9,6.6,1.6,9.7c-20.7,29.2-21.5,68.6-21.5,69C209.7,382,206.6,385.1,202.8,385.1z"/>
			</g>
			<g>
				<path class="st0" d="M282.2,212.5c-1.3,0-2.7-0.4-3.9-1.2c-3.2-2.2-4-6.5-1.8-9.7c19.7-29,20.6-67.3,20.6-67.7
					c0.1-3.8,3.2-6.8,7-6.8c0,0,0.1,0,0.1,0c3.8,0.1,6.9,3.2,6.8,7.1c0,1.7-0.9,42.8-23,75.3C286.6,211.4,284.4,212.5,282.2,212.5z"
					/>
			</g>
		</g>
		<g>
			<path class="st0" d="M253.4,326.8c-11.9,0-22.9-5.5-30.1-15.1c-0.7-0.9-1.8-1.6-3.1-1.8c-11.7-1.3-22.2-8.2-28.1-18.4
				c-6-10.2-6.7-22.5-2-33.6c0.5-1.1,0.5-2.4,0-3.6c-4.7-10.9-4-23.1,2-33.5c5.9-10.3,16.2-17,28.1-18.4c1.2-0.2,2.3-0.8,3.1-1.8
				c7.1-9.4,18.4-15,30-15c11.9,0,22.9,5.5,30.1,15.1c0.7,0.9,1.8,1.6,3.1,1.8c11.7,1.3,22.2,8.2,28.1,18.4c6,10.4,6.7,22.6,2,33.6
				c-0.5,1.1-0.5,2.4,0,3.6c4.7,10.9,4,23.1-2,33.5c-5.9,10.3-16.2,17-28.1,18.4c-1.2,0.2-2.3,0.8-3.1,1.8
				C276.3,321.1,265.1,326.8,253.4,326.8z M253.4,199.4c-7.3,0-14.4,3.6-19,9.5c-3,4-7.5,6.6-12.5,7.2c-7.6,0.9-14.1,5.1-17.8,11.6
				c-3.8,6.5-4.2,14.3-1.2,21.2c1.9,4.7,1.9,9.8,0,14.4c-3,7.1-2.6,14.8,1.2,21.2c3.7,6.5,10.3,10.8,17.7,11.6c0,0,0.1,0,0.1,0
				c5,0.6,9.4,3.2,12.4,7.2c4.5,6.1,11.4,9.6,19,9.6c7.3,0,14.4-3.6,19-9.5c3-4,7.5-6.6,12.5-7.2c7.6-0.9,14-5.1,17.8-11.6
				c3.8-6.5,4.2-14.3,1.2-21.2c-1.9-4.7-1.9-9.8,0-14.4c3-7,2.6-14.7-1.2-21.3l0,0c-3.7-6.4-10.3-10.8-17.6-11.6c0,0-0.1,0-0.1,0
				c-5-0.6-9.4-3.2-12.4-7.2C267.8,202.8,260.9,199.4,253.4,199.4z"/>
		</g>
		<g>
			<path class="st0" d="M234.8,290.5c-4.2,0-8.2-1.6-11.2-4.7c-3.9-3.9-5.5-9.5-4.3-14.9l3.8-16.7c1.7-7.3,4.9-14.2,9.4-20.3
				c7.1-9.6,18.8-14.1,30.5-11.9c0,0,0,0,0,0c12.2,2.3,22,12.1,24.3,24.3c2.2,11.6-2.5,23.5-11.9,30.5c-6.1,4.5-12.9,7.7-20.2,9.4
				l-16.7,3.8C237.2,290.4,236,290.5,234.8,290.5z M257.2,235.4c-5.3,0-10.3,2.5-13.5,6.8c-3.4,4.6-5.7,9.7-7,15.1l-3.8,16.7
				c-0.2,1,0.2,1.6,0.5,1.9c0.3,0.3,0.9,0.8,1.9,0.5l16.7-3.8c5.4-1.3,10.5-3.6,15.1-7c5.1-3.8,7.7-10.4,6.5-16.7
				c-1.3-6.7-6.6-12-13.3-13.3C259.3,235.5,258.3,235.4,257.2,235.4z"/>
		</g>
		<g>
			<g>
				<path class="st0" d="M366.1,257c-0.5,0-0.9-0.1-1.4-0.1c-0.4-0.1-0.9-0.2-1.3-0.4c-0.4-0.2-0.8-0.4-1.2-0.6
					c-0.4-0.2-0.7-0.5-1.1-0.9c-0.3-0.3-0.6-0.7-0.9-1.1s-0.5-0.8-0.6-1.2c-0.2-0.4-0.3-0.9-0.4-1.3c-0.1-0.5-0.1-0.9-0.1-1.4
					c0-1.8,0.8-3.6,2-4.9c0.3-0.3,0.7-0.6,1.1-0.9c0.4-0.2,0.8-0.5,1.2-0.6c0.4-0.2,0.9-0.3,1.3-0.4c2.3-0.4,4.7,0.3,6.3,1.9
					c1.3,1.3,2,3.1,2,4.9c0,0.4,0,0.9-0.1,1.4c-0.1,0.4-0.2,0.9-0.4,1.3c-0.2,0.4-0.4,0.8-0.6,1.2s-0.5,0.7-0.9,1.1
					c-0.3,0.3-0.7,0.6-1.1,0.9s-0.8,0.5-1.2,0.6c-0.4,0.2-0.9,0.3-1.3,0.4C367,256.9,366.5,257,366.1,257z"/>
			</g>
		</g>
		<g>
			<g>
				<path class="st0" d="M335.4,182.8c-1.8,0-3.6-0.7-4.9-2c-0.3-0.3-0.6-0.7-0.9-1.1c-0.2-0.4-0.5-0.8-0.6-1.2
					c-0.2-0.4-0.3-0.9-0.4-1.3c-0.1-0.4-0.1-0.9-0.1-1.4c0-1.8,0.8-3.6,2-4.9c0.3-0.3,0.7-0.6,1.1-0.9s0.8-0.5,1.2-0.6
					c0.4-0.2,0.9-0.3,1.3-0.4c0.9-0.2,1.8-0.2,2.7,0c0.4,0.1,0.9,0.2,1.3,0.4c0.4,0.2,0.8,0.4,1.2,0.6c0.4,0.2,0.7,0.5,1.1,0.9
					c1.3,1.3,2,3.1,2,4.9c0,0.5,0,0.9-0.1,1.4c-0.1,0.4-0.2,0.9-0.4,1.3c-0.2,0.4-0.4,0.8-0.6,1.2c-0.2,0.4-0.5,0.7-0.9,1.1
					c-0.3,0.3-0.7,0.6-1.1,0.9s-0.8,0.5-1.2,0.6c-0.4,0.2-0.9,0.3-1.3,0.4C336.3,182.7,335.8,182.8,335.4,182.8z"/>
			</g>
		</g>
		<g>
			<g>
				<path class="st0" d="M164.7,182.8c-1.8,0-3.6-0.8-4.9-2c-0.3-0.3-0.6-0.7-0.9-1.1c-0.2-0.4-0.5-0.8-0.6-1.2
					c-0.2-0.4-0.3-0.9-0.4-1.3c-0.1-0.4-0.1-0.9-0.1-1.4c0-1.8,0.8-3.6,2-4.9c0.3-0.3,0.7-0.6,1.1-0.9s0.8-0.5,1.2-0.6
					c0.4-0.2,0.9-0.3,1.3-0.4c0.9-0.2,1.8-0.2,2.7,0c0.4,0.1,0.9,0.2,1.3,0.4c0.4,0.2,0.8,0.4,1.2,0.6c0.4,0.2,0.7,0.5,1.1,0.9
					c1.3,1.3,2,3.1,2,4.9c0,0.5,0,0.9-0.1,1.4c-0.1,0.4-0.2,0.9-0.4,1.3c-0.2,0.4-0.4,0.8-0.6,1.2c-0.2,0.4-0.5,0.7-0.9,1.1
					C168.3,182,166.5,182.8,164.7,182.8z"/>
			</g>
		</g>
		<g>
			<g>
				<path class="st0" d="M198.2,187.1c-1.8,0-3.6-0.8-4.9-2c-0.3-0.3-0.6-0.7-0.9-1.1c-0.2-0.4-0.5-0.8-0.6-1.2
					c-0.2-0.4-0.3-0.9-0.4-1.3c-0.1-0.5-0.1-0.9-0.1-1.4c0-1.8,0.8-3.6,2-4.9c1.3-1.3,3.1-2,4.9-2s3.6,0.8,4.9,2
					c1.3,1.3,2,3.1,2,4.9c0,0.5,0,0.9-0.1,1.4c-0.1,0.4-0.2,0.9-0.4,1.3c-0.2,0.4-0.4,0.8-0.6,1.2c-0.2,0.4-0.5,0.7-0.9,1.1
					C201.8,186.3,200,187.1,198.2,187.1z"/>
			</g>
		</g>
		<g>
			<g>
				<path class="st0" d="M179.7,322.2c-0.4,0-0.9-0.1-1.4-0.1c-0.4-0.1-0.9-0.2-1.3-0.4c-0.4-0.2-0.8-0.4-1.2-0.6s-0.7-0.5-1.1-0.9
					c-0.3-0.3-0.6-0.7-0.9-1.1s-0.5-0.8-0.6-1.2c-0.2-0.4-0.3-0.9-0.4-1.3c-0.1-0.5-0.1-0.9-0.1-1.4c0-0.5,0-0.9,0.1-1.4
					c0.1-0.4,0.2-0.9,0.4-1.3c0.2-0.4,0.4-0.8,0.6-1.2s0.5-0.7,0.9-1.1c1.6-1.6,4-2.4,6.3-1.9c0.4,0.1,0.9,0.2,1.3,0.4
					c0.4,0.2,0.8,0.4,1.2,0.6c0.4,0.2,0.7,0.5,1.1,0.9c0.3,0.3,0.6,0.7,0.9,1.1s0.5,0.8,0.6,1.2c0.2,0.4,0.3,0.9,0.4,1.3
					c0.1,0.5,0.1,0.9,0.1,1.4c0,0.4,0,0.9-0.1,1.4c-0.1,0.4-0.2,0.9-0.4,1.3c-0.2,0.4-0.4,0.8-0.6,1.2s-0.5,0.7-0.9,1.1
					c-0.3,0.3-0.7,0.6-1.1,0.9c-0.4,0.2-0.8,0.5-1.2,0.6c-0.4,0.2-0.9,0.3-1.3,0.4C180.6,322.1,180.1,322.2,179.7,322.2z"/>
			</g>
		</g>
		<g>
			<g>
				<path class="st0" d="M235.7,372.8c-0.4,0-0.9,0-1.4-0.1c-0.4-0.1-0.9-0.2-1.3-0.4c-0.4-0.2-0.8-0.4-1.2-0.6s-0.7-0.5-1.1-0.9
					c-0.3-0.3-0.6-0.7-0.9-1.1s-0.5-0.8-0.6-1.2c-0.2-0.4-0.3-0.9-0.4-1.3c-0.1-0.5-0.1-0.9-0.1-1.4c0-0.4,0.1-0.9,0.1-1.4
					c0.1-0.4,0.2-0.9,0.4-1.3c0.2-0.4,0.4-0.8,0.6-1.2s0.5-0.7,0.9-1.1c0.3-0.3,0.7-0.6,1.1-0.9s0.8-0.5,1.2-0.6
					c0.4-0.2,0.9-0.3,1.3-0.4c2.3-0.5,4.7,0.3,6.3,1.9c0.3,0.3,0.6,0.7,0.9,1.1s0.5,0.8,0.6,1.2c0.2,0.4,0.3,0.9,0.4,1.3
					c0.1,0.5,0.1,0.9,0.1,1.4c0,0.5,0,0.9-0.1,1.4c-0.1,0.4-0.2,0.9-0.4,1.3c-0.2,0.4-0.4,0.8-0.6,1.2s-0.5,0.7-0.9,1.1
					c-0.3,0.3-0.7,0.6-1.1,0.9c-0.4,0.2-0.8,0.5-1.2,0.6c-0.4,0.2-0.9,0.3-1.3,0.4C236.6,372.8,236.1,372.8,235.7,372.8z"/>
			</g>
		</g>
		<g>
			<g>
				<path class="st0" d="M253.4,352c-0.5,0-0.9,0-1.4-0.1c-0.4-0.1-0.9-0.2-1.3-0.4c-0.4-0.2-0.8-0.4-1.2-0.6
					c-0.4-0.2-0.7-0.5-1.1-0.9c-0.3-0.3-0.6-0.7-0.9-1.1c-0.2-0.4-0.5-0.8-0.6-1.2c-0.2-0.4-0.3-0.9-0.4-1.3
					c-0.1-0.4-0.1-0.9-0.1-1.4c0-1.8,0.8-3.6,2-4.9c1.3-1.3,3.1-2,4.9-2s3.6,0.8,4.9,2c1.3,1.3,2,3.1,2,4.9c0,0.5,0,0.9-0.1,1.4
					c-0.1,0.4-0.2,0.9-0.4,1.3c-0.2,0.4-0.4,0.8-0.6,1.2c-0.2,0.4-0.5,0.7-0.9,1.1C257,351.2,255.2,352,253.4,352z"/>
			</g>
		</g>
		<g>
			<g>
				<path class="st0" d="M347.2,275.9c-0.5,0-0.9,0-1.4-0.1c-0.4-0.1-0.9-0.2-1.3-0.4c-0.4-0.2-0.8-0.4-1.2-0.6s-0.7-0.5-1.1-0.9
					c-0.3-0.3-0.6-0.7-0.9-1.1s-0.5-0.8-0.6-1.2c-0.2-0.4-0.3-0.9-0.4-1.3c-0.1-0.5-0.1-0.9-0.1-1.4c0-0.4,0-0.9,0.1-1.4
					c0.1-0.4,0.2-0.9,0.4-1.3c0.2-0.4,0.4-0.8,0.6-1.2s0.5-0.7,0.9-1.1c1.3-1.3,3.1-2,4.9-2s3.6,0.8,4.9,2c0.3,0.3,0.6,0.7,0.9,1.1
					s0.5,0.8,0.6,1.2c0.2,0.4,0.3,0.9,0.4,1.3c0.1,0.5,0.1,0.9,0.1,1.4c0,0.5-0.1,0.9-0.1,1.4c-0.1,0.4-0.2,0.9-0.4,1.3
					c-0.2,0.4-0.4,0.8-0.6,1.2s-0.5,0.7-0.9,1.1C350.8,275.1,349,275.9,347.2,275.9z"/>
			</g>
		</g>
	</g>
</g>
</svg>
