<?xml version="1.0" encoding="utf-8"?>
<!-- Generator: Adobe Illustrator 27.1.1, SVG Export Plug-In . SVG Version: 6.00 Build 0)  -->
<svg version="1.1" id="Layer_1" xmlns="http://www.w3.org/2000/svg" xmlns:xlink="http://www.w3.org/1999/xlink" x="0px" y="0px"
	 viewBox="0 0 512 512" style="enable-background:new 0 0 512 512;" xml:space="preserve">
<style type="text/css">
	.st0{fill:#511F74;}
</style>
<g>
	<path class="st0" d="M255.9,495.7c-10.5,0-20.4-4-27.9-11.3l-29.5-28.6c-3.1-3-7.1-4.6-11.3-4.6c-0.7,0-1.5,0.1-2.3,0.2l-40.7,5.8
		c-1.7,0.3-3.6,0.4-5.7,0.4c-19.5,0-36-14-39.4-33.2L92,383.8c-0.9-4.9-4-9.1-8.4-11.5L47.2,353C28,342.9,20.5,319.5,30,300l18-36.9
		c2.2-4.5,2.2-9.7,0-14.2L30,212c-9.6-19.5-2.1-42.8,17.2-53.1l36.3-19.2c4.4-2.2,7.5-6.4,8.4-11.5L99,87.8
		c3.3-19.3,19.9-33.3,39.4-33.3c1.9,0,3.8,0.1,5.8,0.4l40.7,5.8c0.8,0.1,1.5,0.2,2.3,0.2c4.2,0,8.2-1.6,11.3-4.6L228,27.6
		c7.6-7.3,17.5-11.4,27.9-11.4s20.4,4,27.9,11.4l29.5,28.6c3.1,3,7.1,4.6,11.3,4.6c0.8,0,1.5-0.1,2.3-0.2l40.7-5.8
		c1.9-0.3,3.8-0.4,5.7-0.4c19.4,0,36,14,39.4,33.3l7.1,40.5c0.9,4.9,4,9.1,8.4,11.5l36.3,19.2c19.2,10.2,26.8,33.5,17.2,53.1
		l-18,36.9c-2.2,4.5-2.2,9.7,0,14.2l18,36.9c9.6,19.5,2.1,42.8-17.2,53.1l-36.3,19.2c-4.4,2.2-7.5,6.4-8.4,11.5l-7.1,40.4
		c-3.3,19.3-19.9,33.3-39.4,33.3l0,0c-1.9,0-3.8-0.1-5.8-0.4l-40.7-5.8c-0.8-0.1-1.5-0.2-2.3-0.2c-4.2,0-8.2,1.6-11.3,4.6
		l-29.5,28.6C276.2,491.7,266.3,495.7,255.9,495.7z M187.4,427.3c10.3,0,20.2,4,27.8,11.3l29.5,28.6c3,3,7,4.6,11.3,4.6
		c4.2,0,8.2-1.6,11.3-4.6l29.5-28.6c7.5-7.3,17.4-11.3,27.8-11.3c1.9,0,3.8,0.1,5.7,0.4l40.7,5.8c0.7,0.1,1.5,0.1,2.2,0.1
		c8,0,14.7-5.7,16.1-13.5l7.1-40.4c2.2-12.4,9.8-22.8,20.8-28.6l36.3-19.2c7.8-4.3,10.8-13.6,7-21.6l-18-36.9
		c-5.4-11.2-5.4-24,0-35.3l18-36.9c3.9-8,0.8-17.4-7-21.5l-36.3-19.2c-11-5.9-18.6-16.3-20.8-28.6l-7.1-40.5
		c-1.3-7.8-8-13.5-15.9-13.5c-0.8,0-1.6,0.1-2.4,0.2L330.3,84c-1.9,0.3-3.9,0.4-5.9,0.4c-10.3,0-20.1-4-27.7-11.3l-29.5-28.6
		c-3-3-7-4.6-11.3-4.6c-4.2,0-8.2,1.6-11.3,4.6l-29.5,28.6c-7.5,7.3-17.4,11.3-27.8,11.3c-1.9,0-3.8-0.1-5.7-0.4L141,78.2
		c-0.7-0.1-1.5-0.1-2.2-0.1c-8,0-14.7,5.7-16.1,13.5l-7.1,40.4c-2.2,12.4-9.8,22.8-20.8,28.6l-36.3,19.2c-7.7,4.2-10.8,13.7-7,21.5
		l18,36.9c5.4,11.2,5.4,24,0,35.3l-18,36.9c-3.9,8-0.8,17.4,7,21.5l36.3,19.2c11,5.9,18.6,16.3,20.8,28.6l7.1,40.5
		c1.3,7.8,8,13.5,15.9,13.5c0.8,0,1.6-0.1,2.4-0.2l40.7-5.8C183.4,427.4,185.3,427.3,187.4,427.3z"/>
</g>
<g>
	<g>
		<path class="st0" d="M357.9,154.1c-5.4-5.4-14.3-5.4-19.7,0L154.1,338.2c-5.4,5.4-5.4,14.3,0,19.7c2.7,2.7,6.3,4.1,9.9,4.1
			c3.6,0,7.1-1.4,9.9-4.1L358,173.8C363.3,168.4,363.3,159.6,357.9,154.1z"/>
	</g>
</g>
<g>
	<g>
		<path class="st0" d="M200.2,130.5c-28.2,0-51.1,22.9-51.1,51.1s22.9,51.1,51.1,51.1s51.1-22.9,51.1-51.1S228.4,130.5,200.2,130.5z
			 M200.2,204.9c-12.8,0-23.2-10.4-23.2-23.2s10.4-23.2,23.2-23.2s23.2,10.4,23.2,23.2C223.5,194.4,213,204.9,200.2,204.9z"/>
	</g>
</g>
<g>
	<g>
		<path class="st0" d="M311.8,279.2c-28.2,0-51.1,22.9-51.1,51.1s22.9,51.1,51.1,51.1s51.1-22.9,51.1-51.1
			C362.9,302.2,340,279.2,311.8,279.2z M311.8,353.6c-12.8,0-23.2-10.4-23.2-23.2c0-12.8,10.4-23.2,23.2-23.2
			c12.8,0,23.2,10.4,23.2,23.2S324.6,353.6,311.8,353.6z"/>
	</g>
</g>
</svg>
