<?xml version="1.0" encoding="utf-8"?>
<!-- Generator: Adobe Illustrator 27.1.1, SVG Export Plug-In . SVG Version: 6.00 Build 0)  -->
<svg version="1.1" id="Layer_1" xmlns="http://www.w3.org/2000/svg" xmlns:xlink="http://www.w3.org/1999/xlink" x="0px" y="0px"
	 viewBox="0 0 512 512" style="enable-background:new 0 0 512 512;" xml:space="preserve">
<style type="text/css">
	.st0{fill:#511F74;}
</style>
<g>
	<path class="st0" d="M10.5,398.7l31,21.3c14.2,9.8,30.8,14.8,47.5,14.8c10.7,0,21.4-2,31.6-6.2l39.6-16.1
		c18.5-7.5,39.3-6.7,57.2,2.3l1.1,0.6c23.5,11.8,51.6,11.8,75.2,0l1.1-0.6c17.8-8.9,38.7-9.8,57.2-2.3l39.6,16.1
		c26.2,10.7,55.8,7.4,79.1-8.6l31-21.3c3.3-2.3,4.1-6.8,1.9-10.1c-2.3-3.3-6.8-4.1-10.1-1.9l-31,21.3c-19.3,13.3-43.7,15.9-65.4,7.1
		l-3.1-1.3c20.1-34.4,33.5-68.4,39.7-101.3c0.7-3.7-0.4-7.6-3-10.3c-2-2.1-3.9-4.2-5.9-6.2l-5.6-51c-0.7-6.2-5.9-10.8-12.1-10.8
		h-3.7l-12.4-63c-1.1-5.5-5.9-9.6-11.6-9.6h-6l-3.6-23.6c-0.6-4-4.3-6.7-8.3-6.1c-4,0.6-6.7,4.3-6.1,8.3l3.3,21.3H320l-10-64.9h38.7
		l1.9,12.5c0.6,3.6,3.7,6.2,7.2,6.2c0.4,0,0.7,0,1.1-0.1c4-0.6,6.7-4.3,6.1-8.3L355.9,48c-1.1-7.3-7.3-12.6-14.7-12.6h-40.7
		l-2.4-15.8C297,12.3,290.8,7,283.4,7h-54.8c-7.4,0-13.6,5.3-14.7,12.6l-2.4,15.8h-40.7c-7.4,0-13.6,5.3-14.7,12.6l-17.6,113.6h-6
		c-5.6,0-10.5,4-11.6,9.6l-12.1,62.9h-1.2c-6.2,0-11.4,4.7-12.1,10.8l-5.3,48.2c-3,3-5.9,6-8.7,9c-2.6,2.8-3.7,6.6-3,10.3
		c3.2,17.1,8.4,34.7,15.5,52.3c1.5,3.7,5.7,5.5,9.5,4.1c3.7-1.5,5.5-5.7,4.1-9.5c-1.8-4.6-3.5-9.2-5.1-13.8
		c38.6-38.1,86.5-68.7,146.3-93.5v157c-8.2-0.9-16.3-3.2-23.8-6.9l-1.1-0.6c-21.6-10.8-46.8-11.8-69.2-2.7l-22.8,9.3
		c-4.2-7-8.1-14.1-11.6-21c-1.8-3.6-6.2-5-9.8-3.2c-3.6,1.8-5,6.2-3.2,9.8c3.4,6.6,7,13.3,10.9,19.9l-3.1,1.3
		c-21.7,8.8-46.1,6.2-65.4-7.1l-31-21.3c-3.3-2.3-7.8-1.4-10.1,1.9C6.3,391.9,7.2,396.4,10.5,398.7L10.5,398.7z M357.3,399
		c-22.4-9.1-47.6-8.1-69.2,2.7l-1.1,0.6c-7.5,3.8-15.6,6.1-23.8,6.9v-157c8.7,3.6,17.2,7.3,25.3,11.2c3.6,1.7,8,0.2,9.7-3.5
		c1.7-3.6,0.2-8-3.5-9.7c-10.1-4.7-20.7-9.3-31.5-13.7v-28.4c64.6,26.8,115.6,60.5,155.6,103c-1.2,6.3-2.7,12.6-4.5,19
		c-26.2-24.8-56.9-46.9-91.6-65.7c-3.5-1.9-7.9-0.6-9.9,2.9c-1.9,3.5-0.6,7.9,2.9,9.9c35.9,19.5,67.4,42.5,93.7,68.5
		c-7.1,20.6-16.9,41.5-29.4,62.6L357.3,399z M408.1,280.2c-12.3-11.1-25.4-21.6-39.4-31.5h35.9L408.1,280.2z M220.6,71.7h70.9
		l13.9,89.9h-98.7L220.6,71.7z M341.2,49.9c0.2,0,0.3,0.1,0.3,0.3l4.9,32h-38.7l-5-32.2L341.2,49.9L341.2,49.9z M228.6,21.6h54.8
		c0.2,0,0.3,0.1,0.3,0.3l5.5,35.4h-66.4l5.5-35.4C228.3,21.7,228.5,21.6,228.6,21.6z M170.8,49.9h38.4l-5,32.2h-38.7l4.9-32
		C170.5,50.1,170.6,49.9,170.8,49.9z M163.3,96.7H202l-10,64.9h-38.7L163.3,96.7z M134.8,176.2h242.3l11.1,57.9h-41.6
		c-25.8-16-54.4-30.2-86-42.8c-3-1.2-6.3-1.2-9.3,0c-31.7,12.6-60.2,26.8-86,42.8h-41.6L134.8,176.2z M109.8,248.7h33.5
		c-13,9.2-25.2,18.8-36.7,29.1L109.8,248.7z M97.6,330.1c-1.8-6.4-3.3-12.7-4.5-19c40-42.5,91-76.2,155.6-103v28.4
		C187.4,261.2,137.8,291.9,97.6,330.1z"/>
	<path class="st0" d="M493.3,435l-31,21.3c-19.3,13.3-43.7,15.9-65.4,7.1l-39.6-16.1c-22.4-9.1-47.6-8.1-69.2,2.7l-1.1,0.6
		c-19.5,9.8-42.7,9.8-62.1,0l-1.1-0.6c-21.6-10.8-46.8-11.8-69.2-2.7L115,463.4c-21.7,8.8-46.1,6.2-65.4-7.1l-31-21.3
		c-3.3-2.3-7.8-1.4-10.1,1.9s-1.4,7.8,1.9,10.1l31,21.3c14.2,9.8,30.8,14.8,47.5,14.8c10.7,0,21.4-2,31.6-6.2l39.6-16.1
		c18.5-7.5,39.3-6.7,57.2,2.3l1.1,0.6c23.5,11.8,51.6,11.8,75.2,0l1.1-0.6c17.8-8.9,38.7-9.8,57.2-2.3l39.6,16.1
		c26.2,10.7,55.8,7.4,79.1-8.6l31-21.3c3.3-2.3,4.1-6.8,1.9-10.1C501.1,433.5,496.6,432.7,493.3,435L493.3,435z"/>
	<path class="st0" d="M344.5,209.3h6.1c4,0,7.3-3.3,7.3-7.3s-3.3-7.3-7.3-7.3h-6.1c-4,0-7.3,3.3-7.3,7.3S340.5,209.3,344.5,209.3z"
		/>
	<path class="st0" d="M167.5,209.3c4,0,7.3-3.3,7.3-7.3s-3.3-7.3-7.3-7.3h-6.1c-4,0-7.3,3.3-7.3,7.3s3.3,7.3,7.3,7.3H167.5z"/>
</g>
</svg>
