<?xml version="1.0" encoding="utf-8"?>
<!-- Generator: Adobe Illustrator 27.1.1, SVG Export Plug-In . SVG Version: 6.00 Build 0)  -->
<svg version="1.1" id="Layer_1" xmlns="http://www.w3.org/2000/svg" xmlns:xlink="http://www.w3.org/1999/xlink" x="0px" y="0px"
	 viewBox="0 0 512 512" style="enable-background:new 0 0 512 512;" xml:space="preserve">
<style type="text/css">
	.st0{fill:#511F74;}
</style>
<g id="Group_53">
	<path id="Path_4779" class="st0" d="M313.1,428.7c1.4-10.4,5.1-20.3,10.9-28.9c0.1-0.3,0.3-0.5,0.4-0.8
		C449.5,325.6,456.9,165.3,457,163.5c0.1-3.6-2.2-6.8-5.7-7.7c-14.6-4-28.5-10.3-41.2-18.6c2.7-12.5-5.2-24.8-17.7-27.6
		c-4.6-1-9.5-0.6-13.9,1.3c-9-9.6-17-20.1-23.9-31.3c-0.1-0.2-0.3-0.4-0.4-0.6c-5.2-8.3-9.7-17.1-13.4-26.2
		C337.8,33.1,295.5,24,256,24s-81.8,9-84.8,28.7c-3.7,9.1-8.2,17.9-13.4,26.2c-0.1,0.2-0.3,0.4-0.4,0.6
		c-6.9,11.2-14.9,21.7-23.9,31.3c-11.8-5-25.3,0.6-30.3,12.3c-1.9,4.4-2.3,9.3-1.3,13.9c-12.7,8.3-26.6,14.6-41.2,18.6
		c-3.5,0.9-5.8,4.1-5.7,7.7c0.1,1.8,7.5,162.1,132.6,235.5c0.1,0.3,0.2,0.6,0.4,0.8c5.8,8.7,9.5,18.6,10.9,28.9
		c-49.3,4.6-74.3,14.1-74.3,28.3c0,29.4,109.5,30.9,131.4,30.9s131.4-1.5,131.4-30.9C387.4,442.8,362.4,433.3,313.1,428.7
		 M387.4,124.6c4.3,0,7.7,3.5,7.7,7.7c0,4.3-3.5,7.7-7.7,7.7c-4.3,0-7.7-3.5-7.7-7.7C379.7,128,383.2,124.6,387.4,124.6 M372,159.4
		c0,6.4-5.2,11.6-11.6,11.6s-11.6-5.2-11.6-11.6c0-6.4,5.2-11.6,11.6-11.6l0,0C366.8,147.8,372,153,372,159.4 M256,39.5
		c44.8,0,68,11.1,69.6,15.5c-1.6,4.4-24.7,15.5-69.6,15.5c-45.2,0-68.4-11.3-69.6-15.3C187.6,50.8,210.8,39.5,256,39.5 M170.3,88.2
		l0.3-0.5l0,0c4.2-6.7,7.4-12.7,9.8-17.5c4.3,2.9,8.9,5.2,13.8,6.9c0.5,0.3,1.1,0.5,1.7,0.6c19.5,5.8,39.7,8.6,60.1,8.3
		c20.3,0.3,40.6-2.4,60.1-8.3c0.6-0.1,1.1-0.3,1.6-0.6c4.9-1.7,9.6-4,13.8-6.9c2.4,4.9,5.6,10.8,9.8,17.5l0,0l0.3,0.5
		c7.3,11.9,15.9,23,25.4,33.2c-1.8,3.4-2.8,7.1-2.8,11c0,0.1,0,0.3,0,0.4c-1.3-0.2-2.6-0.4-3.9-0.4c-13.9,0-25.5,10.6-26.8,24.4
		c-2.6-0.7-5.3-1.1-8-1.2c-15,0-27.8,10.8-30.4,25.5c-14-5.4-29.9-1-39.2,10.8c-9.2-11.9-25.2-16.3-39.2-10.9
		c-2.6-14.7-15.4-25.5-30.4-25.5c-2.7,0-5.4,0.4-8,1.2c-1.3-13.8-12.9-24.4-26.8-24.4c-1.3,0-2.6,0.2-3.9,0.4c0-0.1,0-0.3,0-0.4
		c0-3.8-1-7.6-2.9-11C154.4,111.1,162.9,100,170.3,88.2 M341,186.4c0,8.5-6.9,15.5-15.5,15.5c-8.5,0-15.5-6.9-15.5-15.5
		c0-8.5,6.9-15.5,15.5-15.5S341,177.9,341,186.4L341,186.4 M302.4,213.5c0,10.7-8.7,19.3-19.3,19.3c-10.7,0-19.3-8.7-19.3-19.3
		c0-10.7,8.7-19.3,19.3-19.3l0,0C293.7,194.2,302.4,202.8,302.4,213.5 M248.3,213.5c0,10.7-8.7,19.3-19.3,19.3
		c-10.7,0-19.3-8.7-19.3-19.3c0-10.7,8.7-19.3,19.3-19.3l0,0C239.6,194.2,248.3,202.8,248.3,213.5 M201.9,186.4
		c0,8.5-6.9,15.5-15.5,15.5c-8.5,0-15.5-6.9-15.5-15.5c0-8.5,6.9-15.5,15.5-15.5l0,0C195,171,201.9,177.9,201.9,186.4 M151.6,147.8
		c6.4,0,11.6,5.2,11.6,11.6S158,171,151.6,171s-11.6-5.2-11.6-11.6C140,153,145.2,147.8,151.6,147.8L151.6,147.8 M124.6,124.6
		c4.3,0,7.7,3.5,7.7,7.7s-3.5,7.7-7.7,7.7c-4.3,0-7.7-3.5-7.7-7.7l0,0C116.8,128,120.3,124.6,124.6,124.6 M70.9,168.9
		c13.9-4.4,27.1-10.7,39.3-18.6c4.1,3.3,9.2,5.2,14.4,5.2c0.1,0,0.3,0,0.4,0c-0.2,1.3-0.4,2.6-0.4,3.9c0,14.9,12.1,27,27.1,27.1
		c1.3,0,2.6-0.2,3.9-0.4c0,0.1,0,0.3,0,0.4c0,17.1,13.8,30.9,30.9,30.9c2.7,0,5.4-0.4,8-1.2c1.4,19,17.9,33.3,36.9,31.9
		c9.7-0.7,18.6-5.5,24.6-13.1c11.8,15,33.5,17.6,48.5,5.8c7.7-6,12.4-15,13.1-24.7c2.6,0.7,5.3,1.1,8,1.2
		c17.1,0,30.9-13.8,30.9-30.9c0-0.1,0-0.3,0-0.4c1.3,0.2,2.6,0.4,3.9,0.4c14.9,0,27-12.1,27.1-27.1c0-1.3-0.2-2.6-0.4-3.9
		c0.1,0,0.3,0,0.4,0c5.3,0,10.3-1.9,14.4-5.2c12.2,8,25.4,14.2,39.2,18.7c-2.9,32.2-24.2,186-164.4,235.2c-13.4,4.7-28,4.7-41.4,0
		C95.3,354.9,73.9,201.1,70.9,168.9 M256,472.5c-67.3,0-106-9.5-114.7-15.5c4.9-3.2,20.9-9.3,57.8-12.8c-0.4,3.6-1.1,7.2-2,10.7
		c-1.2,4.1,1.2,8.4,5.4,9.5c4.1,1.2,8.4-1.2,9.5-5.4c4.5-15.9,3.9-32.8-1.5-48.4c6.4,2.9,12.9,5.6,19.8,8c16.7,5.8,34.9,5.8,51.6,0
		c6.9-2.4,13.4-5.2,19.8-8c-5.5,15.6-6,32.5-1.5,48.4c1.2,4.1,5.4,6.5,9.5,5.4c4.1-1.2,6.5-5.4,5.4-9.5c-1-3.5-1.7-7.1-2.1-10.7
		c36.9,3.6,53,9.6,57.8,12.8C362,462.9,323.3,472.5,256,472.5"/>
</g>
</svg>
