<?xml version="1.0" encoding="utf-8"?>
<!-- Generator: Adobe Illustrator 27.1.1, SVG Export Plug-In . SVG Version: 6.00 Build 0)  -->
<svg version="1.1" id="Layer_1" xmlns="http://www.w3.org/2000/svg" xmlns:xlink="http://www.w3.org/1999/xlink" x="0px" y="0px"
	 viewBox="0 0 512 512" style="enable-background:new 0 0 512 512;" xml:space="preserve">
<style type="text/css">
	.st0{fill:#511F74;}
</style>
<path class="st0" d="M481.4,437l-61-194.8c6.7-3.8,11.3-10.9,11.3-19.1c0-8.9-5.4-16.6-13.1-20.1l18.4-73.7c1.3-5.2,2-10.5,2-15.9
	v-6.2c0-17.9-12.5-32.9-29.3-36.8v-45h-14.6v44.4c-13,2.1-24.1,10.8-29.1,23.3l-0.2,0.4l-0.2-0.4c-5-12.6-16.1-21.2-29.1-23.3V25.3
	h-14.6v45c-16.8,3.9-29.3,18.9-29.3,36.8c0,9.5,1.2,18.9,3.5,28.1L313,203c-7.7,3.4-13.1,11.1-13.1,20.1c0,8.2,4.6,15.3,11.3,19.1
	l-61,194.8c-4,12.9-0.4,26.9,9.5,36.4c0.1,0.1,0.1,0.1,0.2,0.2c4.1,3.8,9.5,5.8,14.8,5.8c5.4,0,10.9-2,15-5.9l2.9-2.8
	c2.6-2.5,7.1-2.5,9.7,0l2.9,2.8c8.3,7.9,21.7,7.9,30,0l2.9-2.8c2.6-2.5,7.1-2.5,9.7,0l2.9,2.8c8.3,7.9,21.7,7.9,30,0l2.9-2.8
	c2.6-2.5,7.1-2.5,9.7,0l2.9,2.8c8.3,7.9,21.7,7.9,30,0l2.9-2.8c2.6-2.5,7.1-2.5,9.7,0l2.9,2.8c8.2,7.9,21.5,7.9,29.8,0.2
	c0.1-0.1,0.2-0.1,0.2-0.2C481.8,463.9,485.5,449.9,481.4,437z M321.9,230.4c-4,0-7.3-3.3-7.3-7.3s3.3-7.3,7.3-7.3h87.9
	c4,0,7.3,3.3,7.3,7.3s-3.3,7.3-7.3,7.3H321.9z M307.3,107.2c0-12.8,10.4-23.2,23.2-23.2c9.6,0,18,5.7,21.6,14.6l7,17.4
	c1.1,2.8,3.8,4.6,6.8,4.6s5.7-1.8,6.8-4.6l7-17.4c3.6-8.9,12-14.6,21.6-14.6c12.8,0,23.2,10.4,23.2,23.2v6.2c0,4.2-0.5,8.3-1.5,12.4
	l-18.8,75.4h-76.4l-17.3-69.4C308.3,123.7,307.3,115.4,307.3,107.2z M282.6,460l-2.9,2.8c-2.6,2.5-7.1,2.5-9.7,0
	c-0.1-0.1-0.1-0.1-0.2-0.2c-5.8-5.6-7.9-13.8-5.5-21.3L325.7,245h9.2L293,454.6C289.2,455.4,285.6,457.2,282.6,460z M328.1,460
	l-2.9,2.8c-2.6,2.5-7.1,2.5-9.7,0l-2.9-2.8c-1.5-1.4-3.2-2.5-5-3.4L349.9,245h8.6v215.4l-0.4-0.4C349.8,452.1,336.4,452.1,328.1,460
	z M416.2,462.8c-2.6,2.5-7.1,2.5-9.7,0l-2.9-2.8c-8.3-7.9-21.7-7.9-30,0l-0.4,0.4V245h8.6l42.3,211.6c-1.8,0.9-3.5,2-5,3.5
	L416.2,462.8z M461.9,462.7c-0.1,0.1-0.1,0.1-0.2,0.2c-2.6,2.5-7.1,2.5-9.7,0l-2.9-2.8c-3-2.8-6.6-4.6-10.4-5.4L396.8,245h9.2
	l61.5,196.3C469.8,448.9,467.7,457,461.9,462.7z"/>
<path class="st0" d="M276.4,205.6c1.4-1.8,1.9-4.1,1.3-6.3L248.4,82.1c-0.6-2.2-2.1-4.1-4.2-5L197.4,57V32.6c0-4-3.3-7.3-7.3-7.3
	h-73.2c-4,0-7.3,3.3-7.3,7.3v24.5L62.7,77.2c-2.1,0.9-3.7,2.7-4.2,5L29.2,199.3c-0.5,2.2-0.1,4.5,1.3,6.3s3.5,2.8,5.8,2.8h36.6
	c3.2,0,6.1-2.1,7-5.2l10.3-34.5l4.6,69.5c0.3,3.9,3.5,6.8,7.3,6.8h102.5c3.9,0,7.1-3,7.3-6.8l4.6-69.5l10.3,34.5
	c0.9,3.1,3.8,5.2,7,5.2h36.6C272.9,208.4,275,207.4,276.4,205.6z M153.5,142.7l-26.2-73.4h52.5L153.5,142.7z M124.2,40h58.6v14.6
	h-58.6C124.2,54.6,124.2,40,124.2,40z M67.5,193.8H45.7L71.8,89.2l3.9-1.7l11.5,40.3L67.5,193.8z M102.2,127.4c0-0.5-0.1-1-0.3-1.5
	L89.3,81.7l23.3-10l33.6,94v64.6h-37.1L102.2,127.4z M197.9,230.4h-37.1v-64.6l33.6-94l23.3,10l-12.7,44h0.1c-0.1,0.5-0.3,1-0.4,1.5
	L197.9,230.4z M239.5,193.8l-19.8-66l11.5-40.3l3.9,1.7l26.1,104.6L239.5,193.8L239.5,193.8z"/>
<path class="st0" d="M204.7,259.7H102.2c-4,0-7.3,3.3-7.3,7.3v205.1c0,4.1,3.3,7.3,7.3,7.3h29.3c3.6,0,6.7-2.6,7.2-6.2l14.7-93.3
	l14.7,93.3c0.6,3.6,3.6,6.2,7.2,6.2h29.3c4,0,7.3-3.3,7.3-7.3V267C212.1,262.9,208.8,259.7,204.7,259.7z M197.4,464.7h-15.7l-21-133
	c-0.6-3.6-3.6-6.2-7.2-6.2c-3.6,0-6.7,2.6-7.2,6.2l-21,133h-15.7V274.3h87.9v190.4H197.4z"/>
</svg>
