<?xml version="1.0" encoding="utf-8"?>
<!-- Generator: Adobe Illustrator 27.1.1, SVG Export Plug-In . SVG Version: 6.00 Build 0)  -->
<svg version="1.1" id="Layer_1" xmlns="http://www.w3.org/2000/svg" xmlns:xlink="http://www.w3.org/1999/xlink" x="0px" y="0px"
	 viewBox="0 0 512 512" style="enable-background:new 0 0 512 512;" xml:space="preserve">
<style type="text/css">
	.st0{fill:#511F74;}
</style>
<g id="Layer_2_00000087399069889065443050000017915013608040169638_">
	<g id="InterfaceIcon">
		<path id="_01.Home" class="st0" d="M483.1,198.1L308,51.5c-30.1-25.2-73.9-25.2-104,0L29,198.1c-21.3,17.8-24,49.5-6.2,70.6
			c8.8,10.5,21.5,16.9,35.1,17.8v142.6c0,27.6,22.4,50,50.1,50.1h107.6V355.8c0-22.3,18.1-40.4,40.4-40.4s40.4,18.1,40.4,40.4v123.6
			H404c27.6,0,50-22.4,50.1-50.1V286.7c27.7-1.8,48.6-25.8,46.8-53.4C499.9,219.7,493.5,207,483.1,198.1L483.1,198.1z M450.8,267.6
			h-15.9v161.7c0,17-13.8,30.9-30.9,30.9h-88.5V355.8c0-32.9-26.7-59.5-59.5-59.5c-32.9,0-59.5,26.7-59.5,59.5v104.4H108
			c-17,0-30.9-13.8-30.9-30.8V267.6H61.2c-29,0-42.1-36.2-19.9-54.9L216.4,66.1c23-19.2,56.4-19.2,79.4,0l175,146.8
			C492.9,231.5,479.8,267.6,450.8,267.6L450.8,267.6z"/>
	</g>
</g>
</svg>
