<?xml version="1.0" encoding="utf-8"?>
<!-- Generator: Adobe Illustrator 27.1.1, SVG Export Plug-In . SVG Version: 6.00 Build 0)  -->
<svg version="1.1" id="Layer_1" xmlns="http://www.w3.org/2000/svg" xmlns:xlink="http://www.w3.org/1999/xlink" x="0px" y="0px"
	 viewBox="0 0 512 512" style="enable-background:new 0 0 512 512;" xml:space="preserve">
<style type="text/css">
	.st0{fill:#511F74;}
</style>
<g>
	<path class="st0" d="M209.8,231.5c3.6-5.5,5.8-12.1,5.8-19.1c0-15.8-10.6-29.2-25.1-33.4c3.1-5.2,4.9-11.3,4.9-17.7
		c0-16.8-12-30.9-27.9-34.1c-0.9-10.7-5.3-20.6-12.6-28.6c2.4-17.6-7.1-38.3-15.8-46.1c-4.6-4.2-8.5-4.1-10.9-3.3
		c-1.9,0.6-5.2,2.6-6.2,8.2c-1.2,6.6-7.5,15.3-17.7,24.6c-3,2.7-6.5,5.3-11,8.1c-13.1,8.2-21.4,21.9-22.7,37
		c-15.9,3.2-27.9,17.3-27.9,34.1c0,6.5,1.8,12.5,4.9,17.7c-14.5,4.2-25.1,17.6-25.1,33.4c0,7.1,2.1,13.6,5.8,19.1
		c-12.5,5.3-21.2,17.7-21.2,32c0,14.5,8.9,26.9,21.5,32.2v22.2c0,5.5,4.5,10,10,10h4.7L66,451.1c0.9,4.7,5,8.2,9.8,8.2H159
		c4.8,0,9-3.4,9.8-8.2l22.7-123.3h8.1c5.5,0,10-4.5,10-10v-22.2c12.6-5.2,21.5-17.7,21.5-32.2C231,249.1,222.3,236.8,209.8,231.5
		L209.8,231.5z M99.6,100.2c5-3.1,9.2-6.2,12.7-9.4c10.9-9.8,17.7-19.1,20.5-27.5c5,6.4,12.8,22.5,9.7,35.9
		c-0.5,2.1,0.2,4.2,1.7,5.7c6.1,5.8,9.9,13.3,11,21.5H82.7C84.2,115.7,90.2,106.1,99.6,100.2L99.6,100.2z M40.4,315.8v-17.5
		c0.4,0,0.8,0,1.2,0h19.8v17.5H40.4z M55.3,327.9h40.1l-33.9,33.9L55.3,327.9z M73.5,315.8v-17.5H96v17.5H73.5z M68.4,398.8
		l-4.2-22.7l48.3-48.3h26.8L68.4,398.8z M108.1,315.8v-17.5h21.8v17.5H108.1z M157.1,447.3h-32.6l39.9-39.9L157.1,447.3z
		 M178.2,332.8l-42.5,42.5c-2.3,2.3-2.3,6.2,0,8.5c1.2,1.2,2.7,1.8,4.3,1.8c1.5,0,3.1-0.6,4.3-1.8l30.1-30.1l-6.1,32.9l-60.6,60.6
		c-0.1,0.1-0.1,0.2-0.2,0.2H80.7l43.7-43.7c2.3-2.3,2.3-6.2,0-8.5s-6.2-2.3-8.5,0l-40.7,40.7L71,413.2l85.3-85.3h22.8L178.2,332.8z
		 M141.9,315.8v-17.5h22.5v17.5H141.9z M197.5,315.8h-21v-17.5h19.8c0.4,0,0.8,0,1.2,0V315.8z M196.2,286.3H41.7
		c-12.6,0-22.8-10.2-22.8-22.8c0-12.6,10.2-22.8,22.8-22.8h94.1c3.3,0,6-2.7,6-6s-2.7-6-6-6H41.7c-0.1,0-0.2,0-0.3,0
		c-4.3-4.1-7-10-7-16.4c0-12.6,10.2-22.8,22.8-22.8h38.6c3.3,0,6-2.7,6-6s-2.7-6-6-6H61.6c-4.3-4.1-7-9.9-7-16.4
		c0-12.6,10.2-22.8,22.8-22.8h83.2c12.6,0,22.8,10.2,22.8,22.8c0,6.4-2.7,12.2-7,16.4h-52.6c-3.3,0-6,2.7-6,6s2.7,6,6,6h57
		c12.6,0,22.8,10.2,22.8,22.8c0,6.4-2.7,12.2-7,16.4c-0.1,0-0.2,0-0.3,0h-32.4c-3.3,0-6,2.7-6,6s2.7,6,6,6h32.4
		c12.6,0,22.8,10.2,22.8,22.8C219,276.1,208.8,286.3,196.2,286.3L196.2,286.3z"/>
</g>
<path class="st0" d="M398.5,360.7c-2.4,0-4.9-0.5-7.2-1.6l-20.7-9.7c-4.1-1.9-7.3-5.3-8.8-9.6c-1.6-4.3-1.3-8.9,0.6-13l9.7-20.7
	c1.9-4.1,5.3-7.3,9.6-8.8c4.3-1.6,8.9-1.3,13,0.6l20.7,9.7c4.1,1.9,7.3,5.3,8.8,9.6c1.5,4.3,1.3,8.9-0.6,13l-9.7,20.7
	C411.1,357.1,404.9,360.7,398.5,360.7z M396.2,348.8c2.8,1.3,6.2,0.1,7.5-2.7l9.7-20.7c1.3-2.8,0.1-6.2-2.7-7.5l-20.7-9.7
	c-2.8-1.3-6.2-0.1-7.5,2.7l-9.7,20.7c-0.6,1.4-0.7,2.9-0.2,4.3s1.6,2.6,2.9,3.2L396.2,348.8z M362.4,418.1c-5.4,0-10.5-3-13-8.2
	l-7.3-15.7c-1.6-3.5-1.8-7.3-0.5-10.9s3.9-6.5,7.4-8.1l15.6-7.3c7.1-3.3,15.7-0.2,19,6.9l7.3,15.7c1.6,3.4,1.8,7.3,0.5,10.9
	s-3.9,6.5-7.4,8.1l-15.6,7.3C366.4,417.7,364.4,418.1,362.4,418.1z M370.6,378c-0.4,0-0.8,0.1-1.2,0.3l-15.6,7.3
	c-0.9,0.4-1.3,1.2-1.5,1.6s-0.3,1.3,0.1,2.2l7.3,15.7c0.7,1.4,2.4,2.1,3.8,1.4l15.6-7.3l0,0c0.9-0.4,1.3-1.2,1.5-1.6
	c0.1-0.4,0.3-1.3-0.1-2.2l-7.3-15.7C372.8,378.6,371.7,378,370.6,378z M510.1,231.6c0-11.3-8-20.7-18.5-23
	c-1.9-59.4-50.4-107.2-110.1-107.8l-2.6-11.2C376,77.5,366.4,68,354.3,65.3L280.7,49c-9.4-2-18.7,4-20.8,13.4l-1.7,7.6
	c-2.1,9.4,3.9,18.7,13.3,20.9l62.4,13.7c2.2,0.5,4.1,2,5.1,4c-40.1,16-68.7,54.5-70.2,99.9c-10.6,2.3-18.6,11.8-18.6,23
	c0,11.7,8.6,21.4,19.7,23.2l2.5,20.1c0,0.2-0.1,0.3-0.1,0.5l18.2,147.1c2.6,21,20.5,36.9,41.7,36.9H428c21.2,0,39.1-15.9,41.7-36.9
	l20.6-167.7C501.6,252.9,510.1,243.3,510.1,231.6z M480.1,207.9h-73.4l-22.6-95.7C436,114.3,477.7,155.8,480.1,207.9z M374.5,207.9
	l-21.7-92c6.3-1.8,12.9-3,19.7-3.5l22.5,95.5H374.5z M336.4,93.4L274,79.7c-3.3-0.7-5.3-3.9-4.6-7.2l1.7-7.7c0.7-3.3,4-5.3,7.3-4.6
	l73.5,16.2c7.8,1.7,14.1,7.9,16,15.7l2.1,9.1c-6.8,0.6-13.5,1.9-19.9,3.8C347.6,99.2,342.6,94.8,336.4,93.4z M341.9,119.7l20.8,88.2
	h-82.4C282,168.1,306.9,134.2,341.9,119.7z M478.3,259.2c-12.4-1.7-24.7-2.1-34.9-1.2c-9,0.7-16.9,1.8-24.1,3.1l-1.4-5.9h60.9
	L478.3,259.2z M281.7,255.2h92.2l3.7,15.8c-16.3,4.1-32.6,7-57.5,5.5c-12.5-0.7-24.8-2.9-36.7-6.4L281.7,255.2z M388.7,268.1
	l-3-12.9h20.5l1.9,8.1C401.2,264.8,394.9,266.5,388.7,268.1z M458.5,421.1c-1.9,15.3-15,26.9-30.4,26.9h-95.6
	c-15.5,0-28.5-11.6-30.4-26.9l-17-138.5c11.3,2.9,22.8,4.7,34.4,5.4c32.1,1.8,51.3-3.3,71.7-8.7c15.1-4,30.7-8.2,53.2-9.9
	c5.7-0.5,17.1-1,32.6,1.1L458.5,421.1z M486.5,243.8H274c-6.7,0-12.2-5.5-12.2-12.2s5.5-12.2,12.2-12.2h212.5
	c6.7,0,12.2,5.5,12.2,12.2S493.2,243.8,486.5,243.8z"/>
</svg>
