<?xml version="1.0" encoding="utf-8"?>
<!-- Generator: Adobe Illustrator 27.1.1, SVG Export Plug-In . SVG Version: 6.00 Build 0)  -->
<svg version="1.1" id="Layer_1" xmlns="http://www.w3.org/2000/svg" xmlns:xlink="http://www.w3.org/1999/xlink" x="0px" y="0px"
	 viewBox="0 0 512 512" style="enable-background:new 0 0 512 512;" xml:space="preserve">
<style type="text/css">
	.st0{fill:#511F74;}
</style>
<g>
	<circle class="st0" cx="316.6" cy="231.6" r="9.5"/>
	<path class="st0" d="M446.6,261.4h-1.9v-21.3c0-95.2-70.9-174.2-162.6-186.9c1.5-3.5,2.3-7.3,2.3-11.3c0-15.7-12.8-28.5-28.5-28.5
		s-28.5,12.8-28.5,28.5c0,4,0.8,7.8,2.3,11.3C138.1,66,67.3,144.9,67.3,240.1v21.3h-1.9c-15.7,0-28.5,12.8-28.5,28.5
		s12.8,28.5,28.5,28.5h94.7c-0.8,1.9-1.4,3.9-1.8,6l-8.2,40.8c-25,13.7-28.7,40.6-29.1,52.6l-29.1,19.1c-4.5,3-5.6,9.3-2.4,13.6
		l33.4,44.4c3,4,8.8,5,13,2.1l63.8-43.7c35-12.4,51.3-36.8,60.5-55.2c10.3-7.1,57.6-39.2,89.1-57.9c7.8-4.6,11.8-13.1,10.5-21.8
		h86.8c15.7,0,28.5-12.8,28.5-28.5C475.1,274.2,462.3,261.4,446.6,261.4L446.6,261.4z M246.5,41.9c0-5.2,4.3-9.5,9.5-9.5
		c5.2,0,9.5,4.3,9.5,9.5s-4.3,9.5-9.5,9.5C250.8,51.4,246.5,47.1,246.5,41.9L246.5,41.9z M86.2,240.1c0-93.6,76.2-169.8,169.8-169.8
		c88,0,160.5,67.3,168.9,153h-65.4c-5.2,0-9.5,4.3-9.5,9.5s4.3,9.5,9.5,9.5h66.3v19H86.2V240.1z M341,320.6c0.4,1.4-0.1,2.6-1.3,3.3
		c-35.9,21.3-91.6,59.6-92.2,60c-1.4,0.9-2.4,2.2-3.2,3.7c-12.3,25.3-28.3,40.1-52,48.2c-0.8,0.3-59.7,40.4-59.7,40.4l-21.9-29.1
		l24.9-16.4c2.9-1.9,4.5-5.2,4.2-8.7c0-0.3-2.2-31,22.3-41.7c2.8-1.2,4.9-3.8,5.5-6.8l9.1-45.4c1.1-5.6,6.1-9.7,11.8-9.7
		c3.6,0,6.8,1.5,9.2,4.2c2.3,2.7,3.3,6.2,2.8,9.7c0,0.1,0,0.1,0,0.2l-4.5,33.4c-0.5,3.6,1.1,7.1,4.1,9.1s6.8,2.2,10,0.4l102.3-57
		h25.7C339.6,318.4,340.6,319.1,341,320.6L341,320.6z M217.3,318.4h56.1l-56,31.2l2-14.5C220.3,329.4,219.5,323.6,217.3,318.4z
		 M446.6,299.4H65.4c-5.2,0-9.5-4.3-9.5-9.5s4.3-9.5,9.5-9.5h381.2c5.2,0,9.5,4.3,9.5,9.5S451.8,299.4,446.6,299.4z"/>
	<path class="st0" d="M190.7,110.4c-29.6,13.8-52.9,39.4-63.9,70.1c-1.8,4.9,0.8,10.4,5.7,12.1c1.1,0.4,2.1,0.6,3.2,0.6
		c3.9,0,7.5-2.4,8.9-6.3c9.3-26,29-47.6,54.1-59.3c4.8-2.2,6.8-7.9,4.6-12.6C201.1,110.3,195.4,108.2,190.7,110.4z"/>
</g>
</svg>
