<?xml version="1.0" encoding="utf-8"?>
<!-- Generator: Adobe Illustrator 27.1.1, SVG Export Plug-In . SVG Version: 6.00 Build 0)  -->
<svg version="1.1" id="Layer_1" xmlns="http://www.w3.org/2000/svg" xmlns:xlink="http://www.w3.org/1999/xlink" x="0px" y="0px"
	 viewBox="0 0 512 512" style="enable-background:new 0 0 512 512;" xml:space="preserve">
<style type="text/css">
	.st0{fill:#511F74;}
</style>
<g id="_x39_7_x2C__sweets_x2C__bowl_x2C__candy_x2C__party_x2C__kaimati">
	<g id="XMLID_2319_">
		<path class="st0" d="M176.2,475.6c-77.4,0-140.4-63-140.4-140.4v-44.3c0-4,3.3-7.3,7.3-7.3h429.5c4,0,7.3,3.3,7.3,7.3v44.3
			c0,37.4-14.5,72.6-41.1,99.2c-26.5,26.6-61.8,41.2-99.2,41.2L176.2,475.6L176.2,475.6z M50.5,335.2c0,69.3,56.4,125.7,125.7,125.7
			h163.4c69.3,0,125.7-56.4,125.7-125.7v-37H50.5V335.2z"/>
		<path class="st0" d="M43.2,344.9c-4,0-7.3-3.3-7.3-7.3s3.3-7.3,7.3-7.3h429.5c4,0,7.3,3.3,7.3,7.3s-3.3,7.3-7.3,7.3H43.2z"/>
		<path class="st0" d="M164.5,298.2c-4,0-7.3-3.3-7.3-7.3c0-21.7-17.6-39.3-39.3-39.3s-39.3,17.6-39.3,39.3c0,4-3.3,7.3-7.3,7.3
			s-7.3-3.3-7.3-7.3c0-29.8,24.2-54,54-54s54,24.2,54,54C171.9,294.9,168.6,298.2,164.5,298.2z"/>
		<path class="st0" d="M257.9,298.2c-4,0-7.3-3.3-7.3-7.3c0-21.7-17.6-39.3-39.3-39.3S172,269.2,172,290.9c0,4-3.3,7.3-7.3,7.3
			s-7.3-3.3-7.3-7.3c0-29.8,24.2-54,54-54s54,24.2,54,54C265.3,294.9,262,298.2,257.9,298.2z"/>
		<path class="st0" d="M351.3,298.2c-4,0-7.3-3.3-7.3-7.3c0-21.7-17.6-39.3-39.3-39.3s-39.3,17.6-39.3,39.3c0,4-3.3,7.3-7.3,7.3
			s-7.3-3.3-7.3-7.3c0-29.8,24.2-54,54-54s54,24.2,54,54C358.6,294.9,355.3,298.2,351.3,298.2z"/>
		<path class="st0" d="M444.7,298.2c-4,0-7.3-3.3-7.3-7.3c0-21.7-17.6-39.3-39.3-39.3c-21.7,0-39.3,17.6-39.3,39.3
			c0,4-3.3,7.3-7.3,7.3s-7.3-3.3-7.3-7.3c0-29.8,24.2-54,54-54s54,24.2,54,54C452,294.9,448.7,298.2,444.7,298.2z"/>
		<path class="st0" d="M211.2,251.5c-4,0-7.3-3.3-7.3-7.3c0-21.7-17.6-39.3-39.3-39.3s-39.3,17.6-39.3,39.3c0,4-3.3,7.3-7.3,7.3
			s-7.3-3.3-7.3-7.3c0-29.8,24.2-54,54-54s54,24.2,54,54C218.6,248.2,215.3,251.5,211.2,251.5z"/>
		<path class="st0" d="M304.6,251.5c-4,0-7.3-3.3-7.3-7.3c0-21.7-17.6-39.3-39.3-39.3s-39.3,17.6-39.3,39.3c0,4-3.3,7.3-7.3,7.3
			s-7.3-3.3-7.3-7.3c0-29.8,24.2-54,54-54s54,24.2,54,54C311.9,248.3,308.6,251.5,304.6,251.5z"/>
		<path class="st0" d="M398,251.5c-4,0-7.3-3.3-7.3-7.3c0-21.7-17.6-39.3-39.3-39.3c-21.7,0-39.3,17.6-39.3,39.3
			c0,4-3.3,7.3-7.3,7.3s-7.3-3.3-7.3-7.3c0-29.8,24.2-54,54-54s54,24.2,54,54C405.3,248.2,402,251.5,398,251.5z"/>
		<path class="st0" d="M257.9,204.8c-4,0-7.3-3.3-7.3-7.3c0-21.7-17.6-39.3-39.3-39.3S172,175.8,172,197.5c0,4-3.3,7.3-7.3,7.3
			s-7.3-3.3-7.3-7.3c0-29.8,24.2-54,54-54s54,24.2,54,54C265.3,201.6,262,204.8,257.9,204.8z"/>
		<path class="st0" d="M351.3,204.8c-4,0-7.3-3.3-7.3-7.3c0-21.7-17.6-39.3-39.3-39.3s-39.3,17.6-39.3,39.3c0,4-3.3,7.3-7.3,7.3
			s-7.3-3.3-7.3-7.3c0-29.8,24.2-54,54-54s54,24.2,54,54C358.6,201.6,355.3,204.8,351.3,204.8z"/>
		<path class="st0" d="M299.9,158.2c-4,0-7.3-3.3-7.3-7.3c0-21.7-17.6-39.3-39.3-39.3S214,129.2,214,150.9c0,4-3.3,7.3-7.3,7.3
			s-7.3-3.3-7.3-7.3c0-29.8,24.2-54,54-54s54,24.2,54,54C307.3,154.9,304,158.2,299.9,158.2z"/>
		<g id="XMLID_2907_">
			<path class="st0" d="M257.9,438.3c-1.5,0-3-0.5-4.3-1.3L214,409c-1.9-1.3-3.1-3.5-3.1-6c0-2.3,1.2-4.6,3.1-6l39.6-28
				c1.2-0.9,2.7-1.4,4.2-1.4s3,0.5,4.2,1.3l39.6,28c1.9,1.3,3.1,3.5,3.1,6c0,2.3-1.2,4.6-3.1,6l-39.6,28
				C260.9,437.8,259.4,438.3,257.9,438.3z M231,402.9l26.9,19.1l26.9-19.1l-26.9-19.1L231,402.9z"/>
		</g>
		<path class="st0" d="M337.1,438.3c-1.5,0-3-0.5-4.3-1.3l-39.6-28c-1.9-1.3-3.1-3.5-3.1-6c0-2.3,1.2-4.6,3.1-6l39.6-28
			c1.2-0.9,2.7-1.4,4.2-1.4s3,0.5,4.3,1.4l39.6,28c1.9,1.3,3.1,3.5,3.1,6c0,2.3-1.2,4.6-3.1,6l-39.6,28
			C340.1,437.8,338.6,438.3,337.1,438.3z M310.2,402.9l26.9,19.1l26.9-19.1l-26.9-19.1L310.2,402.9z"/>
		<g id="XMLID_2899_">
			<path class="st0" d="M178.7,438.3c-1.5,0-3-0.5-4.3-1.3l-39.6-28c-1.9-1.3-3.1-3.5-3.1-6c0-2.3,1.2-4.6,3.1-6l39.6-28
				c1.2-0.9,2.7-1.4,4.2-1.4s3,0.5,4.2,1.3l39.6,28c1.9,1.3,3.1,3.5,3.1,6c0,2.3-1.2,4.6-3.1,6l-39.6,28
				C181.7,437.8,180.2,438.3,178.7,438.3z M151.8,402.9l26.9,19.1l26.9-19.1l-26.9-19.1L151.8,402.9z"/>
		</g>
		<g id="XMLID_2897_">
			<path id="XMLID_2758_" class="st0" d="M435.3,122.8c-5.2,0-9.3-4.2-9.3-9.3v-9.3c0-5.2,4.2-9.3,9.3-9.3c5.2,0,9.3,4.2,9.3,9.3
				v9.3C444.7,118.6,440.5,122.8,435.3,122.8z"/>
			<path class="st0" d="M435.3,120.8c-4,0-7.3-3.3-7.3-7.3v-9.3c0-4,3.3-7.3,7.3-7.3s7.3,3.3,7.3,7.3v9.3c0,1.9-0.7,3.7-2,5.1
				C439.2,120,437.3,120.8,435.3,120.8z"/>
		</g>
		<g id="XMLID_2895_">
			<path id="XMLID_2757_" class="st0" d="M435.3,169.5c-5.2,0-9.3-4.2-9.3-9.3v-9.3c0-5.2,4.2-9.3,9.3-9.3c5.2,0,9.3,4.2,9.3,9.3
				v9.3C444.7,165.3,440.5,169.5,435.3,169.5z"/>
			<path class="st0" d="M435.3,167.5c-4,0-7.3-3.3-7.3-7.3v-9.3c0-4,3.3-7.3,7.3-7.3s7.3,3.3,7.3,7.3v9.3c0,1.9-0.7,3.7-2,5.1
				C439.2,166.7,437.3,167.5,435.3,167.5z"/>
		</g>
		<g id="XMLID_2893_">
			<path id="XMLID_2756_" class="st0" d="M463.3,141.5H454c-5.2,0-9.3-4.2-9.3-9.3c0-5.2,4.2-9.3,9.3-9.3h9.3c5.2,0,9.3,4.2,9.3,9.3
				C472.7,137.3,468.5,141.5,463.3,141.5z"/>
			<path class="st0" d="M454,139.5c-4,0-7.3-3.3-7.3-7.3s3.3-7.3,7.3-7.3h9.3c4,0,7.3,3.3,7.3,7.3c0,1.9-0.7,3.7-2,5.1
				c-1.4,1.4-3.3,2.2-5.3,2.2H454z"/>
		</g>
		<g id="XMLID_2891_">
			<path id="XMLID_2755_" class="st0" d="M416.6,141.5h-9.3c-5.2,0-9.3-4.2-9.3-9.3c0-5.2,4.2-9.3,9.3-9.3h9.3
				c5.2,0,9.3,4.2,9.3,9.3C426,137.3,421.8,141.5,416.6,141.5z"/>
			<path class="st0" d="M407.3,139.5c-4,0-7.3-3.3-7.3-7.3s3.3-7.3,7.3-7.3h9.3c4,0,7.3,3.3,7.3,7.3c0,1.9-0.7,3.7-2,5.1
				c-1.4,1.4-3.3,2.2-5.3,2.2H407.3z"/>
		</g>
		<g id="XMLID_2889_">
			<path id="XMLID_2754_" class="st0" d="M80.5,76.1c-5.2,0-9.3-4.2-9.3-9.3v-9.3c0-5.2,4.2-9.3,9.3-9.3c5.2,0,9.3,4.2,9.3,9.3v9.3
				C89.9,71.9,85.7,76.1,80.5,76.1z"/>
			<path class="st0" d="M80.5,74.1c-4,0-7.3-3.3-7.3-7.3v-9.3c0-4,3.3-7.3,7.3-7.3s7.3,3.3,7.3,7.3v9.3c0,1.9-0.7,3.7-2,5.1
				C84.4,73.3,82.5,74.1,80.5,74.1z"/>
		</g>
		<g id="XMLID_2329_">
			<path id="XMLID_2753_" class="st0" d="M80.5,122.8c-5.2,0-9.3-4.2-9.3-9.3v-9.3c0-5.2,4.2-9.3,9.3-9.3c5.2,0,9.3,4.2,9.3,9.3v9.3
				C89.9,118.6,85.7,122.8,80.5,122.8z"/>
			<path class="st0" d="M80.5,120.8c-4,0-7.3-3.3-7.3-7.3v-9.3c0-4,3.3-7.3,7.3-7.3s7.3,3.3,7.3,7.3v9.3c0,1.9-0.7,3.7-2,5.1
				C84.4,120,82.5,120.8,80.5,120.8z"/>
		</g>
		<g id="XMLID_2327_">
			<path id="XMLID_2752_" class="st0" d="M108.5,94.8h-9.3c-5.2,0-9.3-4.2-9.3-9.3s4.2-9.3,9.3-9.3h9.3c5.2,0,9.3,4.2,9.3,9.3
				C117.9,90.6,113.7,94.8,108.5,94.8z"/>
			<path class="st0" d="M99.2,92.8c-4,0-7.3-3.3-7.3-7.3s3.3-7.3,7.3-7.3h9.3c4,0,7.3,3.3,7.3,7.3c0,1.9-0.7,3.7-2,5.1
				c-1.4,1.4-3.3,2.2-5.3,2.2C108.5,92.8,99.2,92.8,99.2,92.8z"/>
		</g>
		<g id="XMLID_2325_">
			<path id="XMLID_2751_" class="st0" d="M61.8,94.8h-9.3c-5.2,0-9.3-4.2-9.3-9.3s4.2-9.3,9.3-9.3h9.3c5.2,0,9.3,4.2,9.3,9.3
				C71.2,90.6,67,94.8,61.8,94.8z"/>
			<path class="st0" d="M52.5,92.8c-4,0-7.3-3.3-7.3-7.3s3.3-7.3,7.3-7.3h9.3c4,0,7.3,3.3,7.3,7.3c0,1.9-0.7,3.7-2,5.1
				c-1.4,1.4-3.3,2.2-5.3,2.2C61.8,92.8,52.5,92.8,52.5,92.8z"/>
		</g>
		<circle id="XMLID_2750_" class="st0" cx="454" cy="216.2" r="9.3"/>
		<path class="st0" d="M454,223.5c-4,0-7.3-3.3-7.3-7.3s3.3-7.3,7.3-7.3s7.3,3.3,7.3,7.3S458,223.5,454,223.5z"/>
		<circle id="XMLID_2749_" class="st0" cx="416.6" cy="57.4" r="9.3"/>
		<path class="st0" d="M416.6,64.7c-4,0-7.3-3.3-7.3-7.3s3.3-7.3,7.3-7.3s7.3,3.3,7.3,7.3S420.6,64.7,416.6,64.7z"/>
		<circle id="XMLID_2748_" class="st0" cx="313.9" cy="85.5" r="9.3"/>
		<path class="st0" d="M313.9,92.8c-4,0-7.3-3.3-7.3-7.3s3.3-7.3,7.3-7.3s7.3,3.3,7.3,7.3S317.9,92.8,313.9,92.8z"/>
		<circle id="XMLID_2747_" class="st0" cx="173.9" cy="57.4" r="9.3"/>
		<path class="st0" d="M173.9,64.7c-4,0-7.3-3.3-7.3-7.3s3.3-7.3,7.3-7.3s7.3,3.3,7.3,7.3S177.9,64.7,173.9,64.7z"/>
		<circle id="XMLID_2746_" class="st0" cx="71.2" cy="178.8" r="9.3"/>
		<path class="st0" d="M71.2,186.1c-4,0-7.3-3.3-7.3-7.3s3.3-7.3,7.3-7.3s7.3,3.3,7.3,7.3S75.2,186.1,71.2,186.1z"/>
	</g>
</g>
</svg>
